<?xml version="1.0" encoding="utf-8"?>
<!-- Generator: Adobe Illustrator 23.0.3, SVG Export Plug-In . SVG Version: 6.00 Build 0)  -->
<svg version="1.1" id="Ebene_1" xmlns="http://www.w3.org/2000/svg" xmlns:xlink="http://www.w3.org/1999/xlink" x="0px" y="0px"
	 viewBox="0 0 277.1 408" style="enable-background:new 0 0 277.1 408;" xml:space="preserve">
<style type="text/css">
	.st0{fill:none;stroke:#FF0000;stroke-width:1.000000e-02;stroke-miterlimit:10;}
	.st1{fill:none;stroke:#0000FF;stroke-width:1.000000e-02;}
	.st2{fill:none;stroke:#FF0000;stroke-width:1.000000e-02;}
</style>
<polygon class="st0" points="250.9,287.5 250.9,332.8 194.2,332.8 194.2,327.4 182.9,327.4 182.9,292.8 194.2,292.8 194.2,287.5 "/>
<polyline class="st1" points="55.5,328.7 57.1,330.3 67.1,340.3 77.1,350.3 87.2,360.3 92.4,365.6 "/>
<polyline class="st1" points="35.5,328.7 37.1,330.3 47.1,340.3 57.1,350.3 67.1,360.3 77.1,370.3 87.2,380.4 92.4,385.6 "/>
<polyline class="st1" points="15.5,328.7 17,330.3 27,340.3 37.1,350.3 47.1,360.3 57.1,370.3 67.1,380.4 77.1,390.4 78.4,391.6 "/>
<polyline class="st1" points="58.3,391.6 57.1,390.4 47.1,380.4 37.1,370.3 27,360.3 17,350.3 7,340.3 1.1,334.4 "/>
<polyline class="st1" points="38.3,391.6 37.1,390.4 27,380.4 17,370.3 7,360.3 1.1,354.5 "/>
<polyline class="st1" points="18.2,391.6 17,390.4 7,380.4 1.1,374.5 "/>
<polyline class="st1" points="75.6,328.7 77.1,330.3 87.2,340.3 92.4,345.5 "/>
<polyline class="st1" points="55.8,391.6 57.1,390.4 67.1,380.4 77.1,370.3 87.2,360.3 92.4,355.1 "/>
<polyline class="st1" points="92.4,335 87.2,340.3 77.1,350.3 67.1,360.3 57.1,370.3 47.1,380.4 37.1,390.4 35.8,391.6 "/>
<polyline class="st1" points="78.7,328.7 77.1,330.3 67.1,340.3 57.1,350.3 47.1,360.3 37.1,370.3 27,380.4 17,390.4 15.8,391.6 "/>
<polyline class="st1" points="58.7,328.7 57.1,330.3 47.1,340.3 37.1,350.3 27,360.3 17,370.3 7,380.4 1.1,386.2 "/>
<polyline class="st1" points="38.6,328.7 37.1,330.3 27,340.3 17,350.3 7,360.3 1.1,366.2 "/>
<polyline class="st1" points="18.6,328.7 17,330.3 7,340.3 1.1,346.1 "/>
<polyline class="st1" points="75.9,391.6 77.1,390.4 87.2,380.4 92.4,375.1 "/>
<path class="st2" d="M180,28.5V3.6h28.9v11.3h27.8V3.6h28.9v24.9h-11.3v23.8h11.3v24.9h-11.3v23.7h11.3v24.9h-11.3v23.7h11.3v24.8
	h-28.9V163h-27.8v11.3H180v-24.8h11.3v-23.8H180v-24.8h11.3V77.2H180V52.3h11.3V28.6H180V28.5z"/>
<path class="st2" d="M5,43.6V14.7h24.8V26h23.7V14.7h24.9V26h23.7V14.7H127V26h23.7V14.7h24.9v28.9h-11.3v27.8h11.3v28.9h-24.9V89
	H127v11.3h-24.9V89H78.4v11.3H53.5V89H29.8v11.3H4.9V71.4h11.4V43.6H5z"/>
<polygon class="st2" points="171.7,345.8 171.7,374.6 160.4,374.6 160.4,391.6 139.9,391.6 139.9,403 118,403 118,391.6 97.5,391.6 
	97.5,374.6 86.2,374.6 86.2,391.6 1.1,391.6 1.1,328.7 86.2,328.7 86.2,345.7 94.7,345.7 94.7,345.8 97.5,345.8 97.5,328.7 
	118,328.7 118,317.3 139.9,317.3 139.9,328.7 160.4,328.7 160.4,345.8 "/>
<path class="st2" d="M258.9,219v-20.6h-17v-11.3H213v11.4h-17V219h-11.4v21.9H196v20.5h17v11.3h28.9v-11.4h17v-20.5h11.4V219H258.9z
	 M215.8,212.1c3.1,0,5.7,2.5,5.7,5.7c0,3.1-2.6,5.7-5.7,5.7c-3.2,0-5.7-2.5-5.7-5.7S212.7,212.1,215.8,212.1z M243.9,250.2H211v-9.9
	h32.9V250.2z M239.1,223.5c-3.2,0-5.7-2.5-5.7-5.7s2.5-5.7,5.7-5.7s5.7,2.5,5.7,5.7C244.8,220.9,242.3,223.5,239.1,223.5z"/>
<polygon class="st2" points="166.4,246.9 166.4,267.6 177.7,267.6 177.7,288.8 153.4,288.8 153.4,311.4 128.6,311.4 128.6,288.8 
	104.8,288.8 104.8,300.1 80,300.1 80,288.8 56.2,288.8 56.2,311.4 31.4,311.4 31.4,288.8 7.1,288.8 7.1,267.6 18.4,267.6 
	18.4,246.9 7.1,246.9 7.1,225.8 31.4,225.8 31.4,214.5 56.2,214.5 56.2,225.8 80,225.8 80,214.5 104.8,214.5 104.8,225.8 
	128.6,225.8 128.6,214.5 153.4,214.5 153.4,225.8 177.7,225.8 177.7,246.9 "/>
<polygon class="st2" points="162.7,143.2 162.7,163.9 174,163.9 174,185 149.7,185 149.7,207.6 124.9,207.6 124.9,185 101.1,185 
	101.1,196.3 76.3,196.3 76.3,185 52.5,185 52.5,207.6 27.7,207.6 27.7,185 3.4,185 3.4,163.9 14.7,163.9 14.7,143.2 3.4,143.2 
	3.4,122 27.7,122 27.7,110.7 52.5,110.7 52.5,122 76.3,122 76.3,110.7 101.1,110.7 101.1,122 124.9,122 124.9,110.7 149.7,110.7 
	149.7,122 174,122 174,143.2 "/>
</svg>
