<?xml version="1.0" encoding="utf-8"?>
<!-- Generator: Adobe Illustrator 23.0.3, SVG Export Plug-In . SVG Version: 6.00 Build 0)  -->
<svg version="1.1" id="Layer_1" xmlns="http://www.w3.org/2000/svg" xmlns:xlink="http://www.w3.org/1999/xlink" x="0px" y="0px"
	 viewBox="0 0 291.4 294.9" style="enable-background:new 0 0 291.4 294.9;" xml:space="preserve">
<style type="text/css">
	.st0{fill:none;stroke:#FF0000;stroke-width:1.000000e-02;}
	.st1{fill:none;stroke:#FF0000;stroke-width:1.000000e-02;stroke-miterlimit:10;}
</style>
<path class="st0" d="M213,235.2v23.5h-11.3V270h-12.3v11.3H165V270h-22.8v11.3h-24.4V270H95v11.3H81.9v-18.9H70.6v-19.6h11.3v-7.6
	h9.9v-11.3h22.1v11.3h20.5v-11.3h21.3v-28.3H167v-17h17v-11.3h17.8V190h11.3v23.5h-11.4v21.9H213V235.2z"/>
<path class="st0" d="M205,102.7v17.8h-28.3v11.3h-28.3v28.3h-11.3v27.6h11.3v17.8h-18.9v11.3h-19.7v-11.3h-7.6v-12.3H90.9v-24.4
	h11.3V146H90.9v-24.4h11.3V98.8H90.9V85.7h22.7V74.4h23.5v11.3H159V74.4h23.5v11.3h11.3v17H205L205,102.7z"/>
<path class="st0" d="M49.1,160.5H29.4v-11.3h-7.6v-12.3H10.5v-24.4h11.3V89.7H10.5V65.3h11.3V42.5H10.5V29.4h18.9V18.1h19.7v11.3
	h7.6v12.3H68v24.4H56.7v22.7H68v24.4H56.7V136H68v13.1H49.1L49.1,160.5L49.1,160.5z"/>
<path class="st0" d="M8.7,191.3v-23.5h19.7v11.3h18.1v-11.3h19.7v23.5H54.9v21.9h11.3v23.5H54.9v21.9h11.3v23.5H46.5v-11.3H28.4
	v11.3H8.7v-23.5H20v-21.9H8.7v-23.5H20v-21.9H8.7z"/>
<path class="st0" d="M95.4,68.2H84.7V49.3H73.3V29.6h11.3V22h17V10.7h29.1V22H159v17h11.3v17.8h-32.6v11.4h-22.1V56.9H95.1v11.3
	L95.4,68.2L95.4,68.2z"/>
<path class="st0" d="M203.2,65H174V45.3h11.3V27.2H174V7.5h29.1v11.3h28.3v17h11.3v17.8H203V65L203.2,65L203.2,65z"/>
<path class="st0" d="M236.4,179.3h-19.7v-19.7H228v-18.1h-11.3v-19.7h19.7v11.3h18.1v-11.3h19.7v19.7h-11.3v18.1h11.3v19.7h-19.7
	V168h-18.1V179.3z"/>
<path class="st0" d="M226.7,115.3h-17.8V96.4h-11.3V76.7h11.3v-7.6h17V57.8h17.8v18.9H255v19.7h-11.3v7.6h-17V115.3z"/>
<rect x="245.9" y="9.5" class="st1" width="34" height="34"/>
<rect x="257.9" y="21.5" class="st1" width="9.9" height="9.9"/>
<rect x="186.7" y="185.3" class="st1" width="9.9" height="9.9"/>
<rect x="177" y="90.7" class="st1" width="9.9" height="9.9"/>
<rect x="74.8" y="195.2" class="st1" width="11.3" height="22.7"/>
<rect x="73.8" y="109.5" class="st1" width="11.3" height="22.7"/>
<rect x="28.9" y="190.5" class="st1" width="17" height="11.3"/>
<polygon class="st1" points="284.6,232.9 284.6,275.4 279.7,275.4 279.7,286.8 261.1,286.8 261.1,275.4 256.2,275.4 256.2,232.9 "/>
<rect x="216.2" y="186.9" class="st1" width="56.7" height="42.5"/>
<rect x="30.8" y="77.9" class="st1" width="17" height="11.3"/>
<polygon class="st1" points="170.3,135.3 198.7,135.3 198.7,140.2 210,140.2 210,158.8 198.7,158.8 198.7,163.6 170.3,163.6 
	170.3,158.8 159,158.8 159,140.2 170.3,140.2 "/>
<rect x="250.2" y="199.6" class="st1" width="11.3" height="17"/>
<rect x="217.9" y="241.6" class="st1" width="34" height="34"/>
<rect x="229.9" y="253.7" class="st1" width="9.9" height="9.9"/>
</svg>
