<?xml version="1.0" encoding="UTF-8" standalone="no"?>
<svg
   version="1.1"
   encoding="utf-8"
   width="505.68176mm"
   height="187.48616mm"
   viewBox="0 0 505.68177 187.48616"
   id="svg13"
   sodipodi:docname="dicebirdhouse.svg"
   inkscape:version="1.3.2 (091e20e, 2023-11-25)"
   xml:space="preserve"
   xmlns:inkscape="http://www.inkscape.org/namespaces/inkscape"
   xmlns:sodipodi="http://sodipodi.sourceforge.net/DTD/sodipodi-0.dtd"
   xmlns="http://www.w3.org/2000/svg"
   xmlns:svg="http://www.w3.org/2000/svg"><defs
     id="defs13"><inkscape:path-effect
       effect="fillet_chamfer"
       id="path-effect43"
       is_visible="true"
       lpeversion="1"
       nodesatellites_param="F,0,0,1,0,0,0,1 @ F,0,1,1,0,4.2468275,0,1 @ F,0,0,1,0,0,0,1 @ F,0,0,1,0,0,0,1 @ F,0,0,1,0,0,0,1 @ F,0,0,1,0,0,0,1 @ F,0,0,1,0,4.2468275,0,1 @ F,0,0,1,0,0,0,1 @ F,0,0,1,0,0,0,1 @ F,0,0,1,0,0,0,1 @ F,0,0,1,0,0,0,1 @ F,0,0,1,0,0,0,1 @ F,0,0,1,0,0,0,1 @ F,0,0,1,0,0,0,1 @ F,0,0,1,0,0,0,1 @ F,0,0,1,0,0,0,1 @ F,0,0,1,0,0,0,1 @ F,0,0,1,0,0,0,1 @ F,0,0,1,0,0,0,1 @ F,0,0,1,0,0,0,1 @ F,0,0,1,0,0,0,1 @ F,0,0,1,0,0,0,1 @ F,0,0,1,0,0,0,1 @ F,0,0,1,0,0,0,1 @ F,0,0,1,0,0,0,1 @ F,0,0,1,0,0,0,1 @ F,0,0,1,0,0,0,1 @ F,0,0,1,0,0,0,1 @ F,0,0,1,0,0,0,1 @ F,0,0,1,0,0,0,1 @ F,0,0,1,0,0,0,1 @ F,0,0,1,0,0,0,1 @ F,0,0,1,0,0,0,1 @ F,0,0,1,0,0,0,1 @ F,0,0,1,0,0,0,1 @ F,0,0,1,0,0,0,1 @ F,0,0,1,0,0,0,1 @ F,0,0,1,0,0,0,1"
       radius="0"
       unit="px"
       method="auto"
       mode="F"
       chamfer_steps="1"
       flexible="false"
       use_knot_distance="true"
       apply_no_radius="true"
       apply_with_radius="true"
       only_selected="false"
       hide_knots="false" /><inkscape:path-effect
       effect="fillet_chamfer"
       id="path-effect250"
       is_visible="true"
       lpeversion="1"
       nodesatellites_param="F,0,0,1,0,0,0,1 @ F,0,0,1,0,0,0,1 @ F,0,0,1,0,0,0,1 @ F,0,0,1,0,0,0,1 @ F,0,0,1,0,0,0,1 @ F,0,0,1,0,0,0,1 @ F,0,0,1,0,0,0,1 @ F,0,0,1,0,0,0,1 @ F,0,0,1,0,0,0,1 @ F,0,0,1,0,0,0,1 @ F,0,0,1,0,0,0,1 @ F,0,0,1,0,0,0,1 @ F,0,0,1,0,0,0,1 @ F,0,1,1,0,0.76732017,0,1 @ F,0,1,1,0,0.76732017,0,1 @ F,0,0,1,0,0,0,1 @ F,0,0,1,0,0,0,1 @ F,0,0,1,0,0,0,1 @ F,0,0,1,0,0,0,1 @ F,0,0,1,0,0,0,1 @ F,0,0,1,0,0,0,1 @ F,0,1,1,0,0.76732017,0,1 @ F,0,0,1,0,0.76732017,0,1 @ F,0,0,1,0,0,0,1 @ F,0,0,1,0,0,0,1 @ F,0,0,1,0,0,0,1 @ F,0,0,1,0,0,0,1 @ F,0,0,1,0,0,0,1 @ F,0,0,1,0,0,0,1 @ F,0,0,1,0,0,0,1 @ F,0,0,1,0,0,0,1 @ F,0,0,1,0,0,0,1 @ F,0,0,1,0,0,0,1 @ F,0,0,1,0,0,0,1 @ F,0,0,1,0,0,0,1 @ F,0,0,1,0,0,0,1 @ F,0,0,1,0,0,0,1 @ F,0,0,1,0,0,0,1 @ F,0,0,1,0,0,0,1 @ F,0,0,1,0,0,0,1 @ F,0,0,1,0,0,0,1 @ F,0,0,1,0,0,0,1 @ F,0,0,1,0,0,0,1 @ F,0,0,1,0,0,0,1 @ F,0,0,1,0,0,0,1 @ F,0,0,1,0,0,0,1 @ F,0,0,1,0,0,0,1"
       radius="0"
       unit="px"
       method="auto"
       mode="F"
       chamfer_steps="1"
       flexible="false"
       use_knot_distance="true"
       apply_no_radius="true"
       apply_with_radius="true"
       only_selected="false"
       hide_knots="false" /><inkscape:path-effect
       effect="fillet_chamfer"
       id="path-effect58"
       is_visible="true"
       lpeversion="1"
       nodesatellites_param="F,0,0,1,0,2.6978465,0,1 @ F,0,0,1,0,5.0348103,0,1 @ F,0,1,1,0,5.0348103,0,1 @ F,0,0,1,0,2.6978465,0,1 @ F,0,0,1,0,0,0,1 @ F,0,0,1,0,0,0,1 @ F,0,0,1,0,0,0,1 @ F,0,0,1,0,0,0,1 @ F,0,0,1,0,0,0,1 @ F,0,0,1,0,0,0,1 @ F,0,0,1,0,0,0,1 @ F,0,0,1,0,0,0,1 @ F,0,0,1,0,0,0,1 @ F,0,0,1,0,0,0,1 @ F,0,0,1,0,0,0,1 @ F,0,0,1,0,0,0,1 @ F,0,0,1,0,0,0,1 @ F,0,0,1,0,0,0,1 @ F,0,0,1,0,0,0,1 @ F,0,0,1,0,0,0,1 @ F,0,0,1,0,0,0,1 @ F,0,0,1,0,0,0,1 @ F,0,0,1,0,0,0,1 @ F,0,0,1,0,0,0,1 @ F,0,0,1,0,0,0,1 @ F,0,0,1,0,0,0,1 @ F,0,0,1,0,0,0,1 @ F,0,0,1,0,0,0,1 @ F,0,0,1,0,0,0,1 @ F,0,0,1,0,0,0,1 @ F,0,0,1,0,0,0,1 @ F,0,0,1,0,0,0,1 @ F,0,0,1,0,0,0,1 @ F,0,0,1,0,0,0,1 @ F,0,0,1,0,0,0,1 @ F,0,0,1,0,0,0,1 @ F,0,0,1,0,0,0,1 @ F,0,0,1,0,0,0,1 @ F,0,0,1,0,0,0,1 @ F,0,0,1,0,0,0,1 @ F,0,0,1,0,0,0,1 @ F,0,0,1,0,0,0,1 @ F,0,0,1,0,0,0,1 @ F,0,0,1,0,0,0,1 @ F,0,0,1,0,0,0,1 @ F,0,0,1,0,0,0,1"
       radius="0"
       unit="px"
       method="auto"
       mode="F"
       chamfer_steps="1"
       flexible="false"
       use_knot_distance="true"
       apply_no_radius="true"
       apply_with_radius="true"
       only_selected="false"
       hide_knots="false" /></defs><sodipodi:namedview
     id="namedview13"
     pagecolor="#ffffff"
     bordercolor="#000000"
     borderopacity="0.25"
     inkscape:showpageshadow="2"
     inkscape:pageopacity="0.0"
     inkscape:pagecheckerboard="0"
     inkscape:deskcolor="#d1d1d1"
     inkscape:document-units="mm"
     inkscape:zoom="0.49552922"
     inkscape:cx="964.62526"
     inkscape:cy="346.09463"
     inkscape:window-width="1472"
     inkscape:window-height="890"
     inkscape:window-x="0"
     inkscape:window-y="38"
     inkscape:window-maximized="0"
     inkscape:current-layer="svg13"
     showguides="false"><inkscape:page
       x="0"
       y="0"
       width="505.68176"
       height="187.48616"
       id="page13"
       margin="0"
       bleed="0" /></sodipodi:namedview><!-- Generator: KYUB Editor - kyub.com --><style
     type="text/css"
     id="style1">
    .plate {stroke:red; stroke-width:0.01; fill:none}
    .engravingSVG {stroke: none; stroke-width: 0.01; fill: blue}
    .cutline {stroke:red; stroke-width:0.01; fill:none}
    .cutout {stroke:red; stroke-width:0.01; fill:none}
    .groupId {stroke:blue; stroke-width:0.01; fill:none}
    .jointId {stroke:blue; stroke-width:0.01; fill:none}
    .foamCoreFoamCut {stroke:magenta; stroke-width:0.01; fill:none}
    .foamCoreCrease {stroke:blue; stroke-width:0.01; fill:none}
  </style><path
     d="m 304.83267,170.80525 v -7.11 h -4 v -7.529 h 8.515 v 4 h 8.138 v -4 h 8.529 v 4 h 8.138 v -4 h 8.528 v 4 h 8.138 v -4 h 8.529 v 4 h 8.138 v -4 h 8.515 v 7.529 h -4 v 7.11 h 4 v 7.529 h -8.515 v -4 h -8.138 v 4 h -8.529 v -4 h -8.138 v 4 h -8.528 v -4 h -8.138 v 4 h -8.529 v -4 h -8.138 v 4 h -8.515 v -7.529 z"
     vector-effect="non-scaling-stroke"
     class="plate"
     id="path1"
     style="fill:none;stroke:#ff0000;stroke-width:0.352778;stroke-dasharray:none;stroke-opacity:1" /><path
     d="m 478.21114,76.765233 h 7.52875 v -4.00027 h 7.11015 v 4.00027 h 7.52926 v -8.51524 h -4.00027 v -8.13801 h 4.00027 v -8.52868 h -4.00027 v -4.069 -3.97185 h 4.00027 v -8.52867 h -4.00027 v -3.97185 -4.26279 h 4.00027 v -8.52868 h -4.00027 v -8.138 h 4.00027 V 1.5972231 h -7.52926 v 3.99975 h -7.11015 v -3.99975 h -7.52875 v 7.09052 1.4247199 8.138 8.52868 8.13801 8.52815 8.138 8.52868 8.13801 4.25762 z"
     style="fill:none;stroke:#ff0000;stroke-width:0.352778;stroke-dasharray:none;stroke-opacity:1"
     id="path55" /><path
     d="m 20.501074,3.4638713 v 4.0002726 h -7.30498 v 4.4291871 h 4.000272 v 4.029728 33.91731 3.112471 h -4.000272 v 8.440312 h 4.000272 v 8.059973 h -4.000272 v 8.439795 h 4.000272 v 8.059973 h -4.000272 v 8.440312 h 4.000272 v 8.059975 h -4.000272 v 8.43979 h 4.000272 v 8.05998 h -4.000272 v 8.44031 h 4.000272 v 8.05997 h -4.000272 v 8.4398 h 4.000272 v 8.05997 h -4.000272 v 8.44031 h 4.000272 v 4.23902 h 3.304708 v 3.99975 h 7.558195 v -3.99975 h 7.304981 v -4.42919 h -4.000273 v -8.05997 h 4.000273 v -8.44031 h -4.000273 v -8.05998 h 4.000273 v -4.55011 -3.88968 -8.05997 -6.32985 -2.10995 -8.06049 V 94.203035 86.143062 77.703267 69.643294 61.202983 53.143009 44.703215 36.643241 28.20293 20.142957 11.703162 7.4641439 H 31.363977 28.059269 V 3.4638713 Z"
     style="fill:none;stroke:#ff0000;stroke-width:0.352778"
     id="path49" /><path
     d="m 71.654142,87.165658 h -8.018 v -4 h -8.417 v 4 h -8.018 v -4 h -8.4 v 7.626 h 3.999 v 7.249 h -3.999 v 7.640002 h 3.999 v 7.24901 h -3.999 v 7.64 h 3.999 v 7.24899 h -3.999 v 7.64 h 3.999 v 7.249 h -3.999 v 7.626 h 8.4 v -4 h 8.018 v 4 h 8.417 v -4 h 8.018 v 4 h 8.417 v -4 h 5.365 v -4.374 h 2.836 v -8.545 h -2.836 v -8.205 h 2.836 v -8.54499 h -2.836 v -8.20501 h 2.836 v -8.545002 h -2.836 v -8.205 h 2.836 v -4.544 h -8.201 v -4 h -8.417 z"
     vector-effect="non-scaling-stroke"
     class="plate"
     id="path7"
     style="fill:none;stroke:#ff0000;stroke-width:0.352778;stroke-dasharray:none;stroke-opacity:1" /><path
     d="m 173.69136,138.14771 v 8.833 h -4 v 9.248 h 4 v 6.184 h 4.374 v 2.836 h 8.545 v -2.836 h 8.205 v 2.836 h 8.545 v -2.836 h 8.205 v 2.836 h 8.545 v -2.836 h 8.205 v 2.836 h 4.544 v -7.517 h 4 v -7.734 h -4 v -7.333 h 4 v -7.734 h -4 v -7.333 h 4 v -3.717 h -7.431 v -4 h -7.64 v 4 h -7.249 v -4 h -7.64 v 4 h -7.248 v -4 h -7.64 v 4 h -7.249 v -4 h -7.64 v 4 h -3.431 v 5.02 h -4 v 9.247 z"
     vector-effect="non-scaling-stroke"
     class="plate"
     id="path8"
     style="fill:none;stroke:#ff0000;stroke-width:0.353;stroke-dasharray:none;stroke-opacity:1" /><path
     d="m 207.44057,2.4830526 -5.82807,5.7975789 -2.8205,-2.8360026 -5.96811,5.9371051 2.82102,2.836003 -5.6839,5.653918 -2.82101,-2.836002 -5.96811,5.936071 2.82101,2.836003 -5.68389,5.653919 -2.82101,-2.836003 -5.92212,5.89008 v 7.942151 h 3.99975 v 7.621757 h -3.99975 v 8.002095 h 3.99975 V 65.704 h -3.99975 v 8.001579 h 3.99975 v 7.622273 h -3.99975 v 8.002096 h 3.99975 v 7.621757 h -3.99975 v 8.002095 h 3.99975 v 3.81114 4.52427 h 59.16797 v -10.33787 -3.657659 h 4.00027 v -7.694104 h -4.00027 v -7.314799 h 4.00027 v -7.694104 h -4.00027 v -7.314799 h 4.00027 v -7.694104 h -4.00027 v -7.313766 h 4.00027 v -7.695137 h -4.00027 v -7.314282 h 4.00027 v -7.633643 l -6.50813,-6.474023 -2.82153,2.836002 -6.26164,-6.23011 2.82154,-2.83497 -6.55516,-6.523116 -2.82101,2.836003 -6.26215,-6.2290771 2.82101,-2.8360026 z m -4.29121,22.1118284 a 9.0317841,9.0317841 0 0 1 9.032,9.032007 9.0317841,9.0317841 0 0 1 -9.032,9.032007 9.0317841,9.0317841 0 0 1 -9.03149,-9.032007 9.0317841,9.0317841 0 0 1 9.03149,-9.032007 z m -1.99988,30.685982 h 4.00027 v 4.000273 h -4.00027 z"
     style="fill:none;stroke:#ff0000;stroke-width:0.352778"
     id="path2" /><path
     id="path47"
     style="fill:none;stroke:#ff0000;stroke-width:0.352778"
     d="M 384.43855 4.1382487 L 384.43855 12.497428 L 380.43828 12.497428 L 380.43828 21.057113 L 384.43855 21.057113 L 384.43855 29.236975 L 380.43828 29.236975 L 380.43828 37.797176 L 384.43855 37.797176 L 384.43855 45.977039 L 380.43828 45.977039 L 380.43828 54.536206 L 384.43855 54.536206 L 384.43855 62.717102 L 380.43828 62.717102 L 380.43828 71.27627 L 384.43855 71.27627 L 384.43855 79.456132 L 380.43828 79.456132 L 380.43828 88.016333 L 384.43855 88.016333 L 384.43855 96.196195 L 380.43828 96.196195 L 380.43828 104.7564 L 384.43855 104.7564 L 384.43855 112.93626 L 380.43828 112.93626 L 380.43828 117.48534 L 380.43828 121.48509 L 389.9302 121.48509 L 389.9302 117.48534 L 389.9302 99.322103 L 393.95993 99.322103 L 393.95993 117.48585 L 398.65577 117.48585 L 398.65577 117.49102 L 412.17743 117.49102 L 412.17743 121.49026 L 435.27059 121.49026 L 435.27059 117.48585 L 439.60676 117.48585 L 443.60651 117.48585 L 447.60627 117.48585 L 447.60627 113.68453 L 447.60627 105.68244 L 447.60627 98.060681 L 447.60627 90.058586 L 447.60627 82.436829 L 447.60627 74.434733 L 443.60651 74.434733 L 443.60651 66.812459 L 447.60627 66.812459 L 447.60627 58.811914 L 443.60651 58.811914 L 443.60651 51.18964 L 447.60627 51.18964 L 447.60627 43.187545 L 443.60651 43.187545 L 443.60651 35.565788 L 447.60627 35.565788 L 447.60627 27.563692 L 443.60651 27.563692 L 443.60651 19.941935 L 447.60627 19.941935 L 447.60627 11.93984 L 443.60651 11.93984 L 443.60651 6.9742513 L 439.2321 6.9742513 L 439.2321 4.1382487 L 430.68741 4.1382487 L 430.68741 6.9742513 L 422.48222 6.9742513 L 422.48222 4.1382487 L 413.93752 4.1382487 L 413.93752 6.9742513 L 405.73234 6.9742513 L 405.73234 4.1382487 L 397.18713 4.1382487 L 397.18713 6.9742513 L 388.98246 6.9742513 L 388.98246 4.1382487 L 384.43855 4.1382487 z M 392.39982 27.279472 L 403.43481 33.091003 L 401.54603 36.624638 L 390.51105 30.813106 L 392.39982 27.279472 z M 436.26536 58.649133 L 438.15413 62.182768 L 427.11863 67.993783 L 425.22986 64.461182 L 436.26536 58.649133 z M 397.74006 93.332804 L 409.0417 98.616203 L 407.32449 102.2351 L 396.02286 96.951705 L 397.74006 93.332804 z M 419.61418 103.55905 L 430.9153 108.84245 L 429.19861 112.46135 L 417.89697 107.17795 L 419.61418 103.55905 z " /><path
     d="m 242.43045,3.5341512 v 7.4925658 h -3.99976 v 7.694104 h 3.99976 v 7.313766 h -3.99976 v 7.69462 h 3.99976 v 7.314799 h -3.99976 v 7.694621 h 3.99976 v 7.314282 h -3.99976 v 7.693588 h 3.99976 v 7.315315 h -3.99976 v 3.847311 3.846793 7.314283 3.895886 3.798734 7.314801 7.6941 7.31532 3.68298 h 11.79515 0.54053 v 3.99872 h 23.09317 v -3.99872 H 287.36 v -5.2e-4 h 4.71703 v -18.1684 h 4.02973 v 18.1684 4.00027 h 5.49165 v -4.00027 -3.99407 h 4.00027 v -8.1933 h -4.00027 v -7.815543 h 4.00027 v -8.194848 h -4.00027 v -7.815027 h 4.00027 v -8.193815 h -4.00027 V 67.74987 h 4.00027 v -8.194849 h -4.00027 v -7.815543 h 4.00027 v -8.193816 h -4.00027 v -7.81451 h 4.00027 v -8.195365 h -4.00027 V 19.72076 h 4.00027 v -8.194332 h -4.00027 V 6.3691203 h -4.37389 V 3.5341512 h -8.5447 v 2.8349691 h -8.20518 V 3.5341512 h -8.54522 v 2.8349691 h -8.20467 V 3.5341512 h -8.54521 v 2.8349691 h -8.20518 V 3.5341512 Z m 51.29506,26.0268348 1.87482,3.533635 -10.95386,5.811531 -1.87482,-3.533634 z m -43.54153,31.369662 10.95385,5.812048 -1.87482,3.532601 -10.95385,-5.811015 z m 38.24056,34.683671 1.70429,3.6189 -11.21792,5.283401 -1.70429,-3.6189 z m -21.71237,10.226251 1.70429,3.6189 -11.21792,5.2834 -1.70429,-3.6189 z"
     style="fill:none;stroke:#ff0000;stroke-width:0.352778"
     id="path46" /><path
     d="m 342.48832,12.597484 25.58397,24.68531 v 17.3731 h -51.16845 v -17.3731 h 5.2e-4 z"
     style="fill:none;stroke:#ff0000;stroke-width:0.352778;stroke-dasharray:none;stroke-opacity:1"
     id="path28" /><path
     d="m 242.03667,126.85841 v 6.17636 h -3.99975 v 0.3235 12.0003 0.32349 h 3.99975 v 6.17637 h 59.16848 v -6.17637 h 4.00028 v -0.32349 -12.0003 -0.3235 h -4.00028 v -6.17636 z"
     style="fill:none;stroke:#ff0000;stroke-width:0.352778"
     id="path38" /><path
     d="m 383.99183,123.53561 v 11.67629 h -4.00027 v 0.32401 11.99979 0.32349 h 4.00027 v 11.3528 h -4.00027 v 0.32401 11.99978 0.3235 h 4.00027 v 11.67629 h 59.16848 v -11.67629 h 3.99976 v -0.3235 -11.99978 -0.32401 h -3.99976 v -11.3528 h 3.99976 v -0.32349 -11.99979 -0.32401 h -3.99976 v -11.67629 z"
     style="fill:none;stroke:#ff0000;stroke-width:0.352778"
     id="path39" /><path
     d="m 21.937679,5.2989014 v 3.7526841 a 4.2468275,4.2468275 45 0 0 4.246827,4.2468275 h 15.897163 c 2.780668,-1.4e-5 5.034849,2.254167 5.034835,5.034835 V 67.43206 c 1.4e-5,2.780668 -2.254167,5.034849 -5.034835,5.034835 H 26.184506 a 4.2468275,4.2468275 135 0 0 -4.246827,4.246828 v 3.752683 h 8.439795 V 76.46665 h 8.059973 v 3.999756 h 8.439795 V 76.46665 h 4.239018 v -4.319633 h 4.000272 V 63.618856 H 51.11626 v -8.138005 h 4.000272 V 46.951656 H 51.11626 v -8.138004 h 4.000272 V 30.284973 H 51.11626 v -8.138004 h 4.000272 V 13.618807 H 51.11626 V 9.2986572 H 46.877242 V 5.2989014 H 38.437447 V 9.2986572 H 30.377474 V 5.2989014 Z"
     style="fill:none;stroke:#ff0000;stroke-width:0.352778"
     id="path43"
     inkscape:path-effect="#path-effect43"
     inkscape:original-d="m 21.937679,5.2989014 v 7.9995116 h 20.14399 a 5.0348103,5.0348103 0 0 1 5.034835,5.034835 V 67.43206 a 5.0348103,5.0348103 0 0 1 -5.034835,5.034835 h -20.14399 v 7.999511 h 8.439795 V 76.46665 h 8.059973 v 3.999756 h 8.439795 V 76.46665 h 4.239018 v -4.319633 h 4.000272 V 63.618856 H 51.11626 v -8.138005 h 4.000272 V 46.951656 H 51.11626 v -8.138004 h 4.000272 V 30.284973 H 51.11626 v -8.138004 h 4.000272 V 13.618807 H 51.11626 V 9.2986572 H 46.877242 V 5.2989014 H 38.437447 V 9.2986572 H 30.377474 V 5.2989014 Z"
     transform="translate(34.045747)" /><path
     d="M 459.86444,1.4490072 V 5.448763 h -7.30498 v 2.2148519 2.2143351 8.059973 8.439795 8.06049 8.439795 8.059973 8.439795 8.059973 8.440312 8.059973 8.439795 8.059976 8.44031 4.03024 4.21938 8.05998 3.82302 4.42712 0.18965 h 4.00027 v 8.05998 h -4.00027 v 0.19068 8.05997 0.18966 h 4.00027 v 8.05997 h -4.00027 v 0.19017 4.23902 h 4.00027 3.30471 v 3.99975 h 7.55819 v -3.99975 h 7.30498 v -4.42919 h -4.00027 v -8.05997 h 4.00027 v -8.4398 h -4.00027 v -8.05997 h 4.00027 v -8.44031 h -4.00027 v -8.05998 h 4.00027 v -8.43979 h -4.00027 v -8.05997 h 4.00027 v -8.439799 h -4.00027 v -8.059973 h 4.00027 v -8.440311 h -4.00027 v -8.059974 h 4.00027 v -8.439795 h -4.00027 V 55.15839 23.490039 18.128092 h 4.00027 V 9.6877808 h -4.00027 V 5.448763 h -3.30471 V 1.4490072 Z"
     style="fill:none;stroke:#ff0000;stroke-width:0.352778"
     id="path48" /><path
     d="m 100.98459,3.39627 v 4.00027 h -8.319913 v 4.42868 h 3.99976 v 8.05996 h -3.99976 v 4.2199 4.22041 8.05998 8.43979 8.05998 2.98534 5.45497 h 3.99976 v 8.05998 h -3.99976 v 8.4398 h 3.99976 v 8.05997 h -3.99976 v 8.44031 h 3.99976 v 8.05997 h -3.99976 v 8.4398 h 3.99976 v 8.05997 h -3.99976 v 8.44031 h 3.99976 v 8.05998 h -3.99976 v 8.43979 h 3.99976 v 8.05997 h -3.99976 v 8.4398 h 3.99976 v 4.23902 h 4.320153 v 4.00027 h 8.52816 v -4.00027 h 8.138 v 4.00027 h 8.52868 v -4.00027 h 8.13801 v 4.00027 h 8.52919 v -4.00027 h 8.13801 v 4.00027 h 8.52816 v -4.00027 h 8.3199 v -4.42867 h -4.00027 v -8.05998 h 4.00027 v -8.44031 h -4.00027 v -8.05997 h 4.00027 v -8.4398 h -4.00027 v -8.05997 h 4.00027 v -8.44031 h -4.00027 v -8.05997 h 4.00027 v -8.4398 h -4.00027 v -8.05998 h 4.00027 v -8.43979 h -4.00027 v -8.0605 h 4.00027 v -8.43979 h -4.00027 v -8.05997 h 4.00027 v -4.46692 -3.97288 -8.05997 -8.44031 -8.05998 -4.2199 -4.21989 h -4.00027 V 7.39654 H 159.5128 V 3.39627 h -8.52816 v 4.00027 h -8.13801 V 3.39627 h -8.52919 v 4.00027 h -8.13801 V 3.39627 h -8.52868 v 4.00027 h -8.138 V 3.39627 Z m -4.329973,22.31905 h 4.005443 v 11.42566 h 0.005 l -5.2e-4,11.46751 H 96.659617 V 37.14098 h -0.005 z m 63.167723,0.0212 h 4.00544 v 11.42514 h 0.005 l -5.2e-4,11.46751 h -4.00492 V 37.16166 h -0.005 z"
     style="fill:none;stroke:#ff0000;stroke-width:0.352778;stroke-dasharray:none;stroke-opacity:1"
     id="path57-0" /><path
     style="fill:none;stroke:#0000ff;stroke-width:0.352778;stroke-dasharray:none;stroke-opacity:1"
     d="m 92.664507,66.86258 v -1.77199 c -0.25652,0.82208 -0.29339,1.51581 0,1.77199 z"
     id="path134" /><path
     style="fill:none;stroke:#0000ff;stroke-width:0.352778;stroke-dasharray:none;stroke-opacity:1"
     d="m 92.664507,128.21646 v -1.77199 c -0.25652,0.82207 -0.29339,1.51581 0,1.77199 z"
     id="path128" /><path
     style="fill:none;stroke:#0000ff;stroke-width:0.352778;stroke-dasharray:none;stroke-opacity:1"
     d="m 137.11451,153.81438 c -0.99147,0.0924 -1.93994,0.37905 -2.73678,0.89038 -0.598,0.38374 -2.0741,0.86129 -2.76056,0.89349 -0.0629,0.003 -0.1142,-0.20501 -0.1142,-0.46251 0,-1.73664 -0.63464,-1.4888 -3.72794,1.45625 -3.46943,3.30316 -3.49948,3.49974 -0.62477,4.12378 3.1302,0.67949 4.27599,1.20626 4.09846,1.88515 -0.20853,0.79739 1.7978,1.15387 5.99912,1.06557 3.74425,-0.0787 4.83374,-0.50116 6.12469,-2.37557 1.17567,-1.70701 4.62349,-2.12331 4.62349,-0.5581 v 0.53692 l -0.4961,0.20205 c -0.27298,0.11102 -0.87439,0.28863 -1.33635,0.39481 -1.68044,0.38622 -3.34154,1.53762 -3.67471,2.54713 l -0.18449,0.55862 0.26924,0.4992 c 0.15994,0.29698 0.49328,0.59351 0.82217,0.73122 1.08916,0.45607 1.37973,0.0424 0.63149,-0.89917 l -0.46767,-0.5886 0.42012,-0.43821 c 0.58241,-0.60791 1.48992,-1.08746 2.9776,-1.57355 3.71685,-1.21446 2.95432,-4.00655 -1.10329,-4.03955 -0.91225,-0.007 -1.29185,-0.30082 -1.60404,-1.24075 -0.80142,-2.41284 -4.16107,-3.88571 -7.13548,-3.60856 z"
     id="path240" /><path
     style="fill:none;stroke:#0000ff;stroke-width:0.352778;stroke-dasharray:none;stroke-opacity:1"
     d="m 163.19871,150.95667 c -0.99156,-0.11066 -2.95119,0.9271 -4.92632,2.73213 -1.5102,1.38015 -2.3148,1.48442 -2.88148,0.37362 -1.28818,-2.52504 -4.85478,-1.66318 -5.01726,1.21233 -0.18861,3.33795 3.69296,4.0221 5.35006,0.9431 0.27666,-0.51406 0.85827,-0.70622 0.65371,-0.21601 -0.0613,0.14699 -0.2944,0.77755 -0.5178,1.40095 l -0.40618,1.13326 -0.50849,0.17105 c -2.79381,0.94066 -3.09258,4.60023 -0.48369,5.92315 2.11122,1.07058 4.60246,-0.42192 4.63796,-2.77864 0.0165,-1.09387 -0.92896,-2.52134 -1.91772,-2.89594 -0.672,-0.25459 -0.3269,-2.05119 0.6935,-3.61064 0.95754,-1.46338 1.41383,-0.80166 0.78187,1.1343 -1.106,3.38816 2.18582,5.68846 4.51858,3.15743 l 0.38189,-0.41444 v -1.19786 c 0,-1.75542 -1.15393,-2.9006 -2.92333,-2.9006 -0.71514,0 -0.971,-0.25827 -0.971,-0.98082 0,-0.54621 0.9266,-1.09552 2.49028,-1.47691 1.32141,-0.3223 1.81632,-0.67675 1.67897,-1.202 -0.0801,-0.30621 -0.30303,-0.47057 -0.63355,-0.50746 z"
     id="path239" /><path
     style="fill:none;stroke:#0000ff;stroke-width:0.352778;stroke-dasharray:none;stroke-opacity:1"
     d="m 118.42108,150.95667 c -0.99156,-0.11066 -2.95119,0.9271 -4.92632,2.73213 -1.51019,1.38015 -2.31428,1.48442 -2.88096,0.37362 -1.28819,-2.52504 -4.8553,-1.66318 -5.01778,1.21233 -0.18861,3.33795 3.69296,4.0221 5.35006,0.9431 0.27666,-0.51406 0.85827,-0.70622 0.65371,-0.21601 -0.0613,0.14699 -0.2944,0.77755 -0.5178,1.40095 l -0.40618,1.13326 -0.50849,0.17105 c -2.79381,0.94066 -3.09258,4.60023 -0.48369,5.92315 2.11122,1.07058 4.60246,-0.42192 4.63796,-2.77864 0.0165,-1.09387 -0.92896,-2.52134 -1.91772,-2.89594 -0.67199,-0.25459 -0.3269,-2.05119 0.6935,-3.61064 0.95754,-1.46338 1.41384,-0.80166 0.78187,1.1343 -1.106,3.38816 2.18634,5.68846 4.5191,3.15743 l 0.38137,-0.41444 v -1.19786 c 0,-1.75542 -1.15392,-2.9006 -2.92333,-2.9006 -0.71514,0 -0.97049,-0.25827 -0.97049,-0.98082 0,-0.54621 0.92661,-1.09552 2.49029,-1.47691 1.32141,-0.3223 1.8158,-0.67675 1.67845,-1.202 -0.0801,-0.30621 -0.30303,-0.47057 -0.63355,-0.50746 z"
     id="path237" /><path
     style="fill:none;stroke:#0000ff;stroke-width:0.352778;stroke-dasharray:none;stroke-opacity:1"
     d="m 129.41731,150.60682 c -1.02939,1.5e-4 -3.94604,0.87458 -4.50619,1.42162 -0.65003,0.63483 -1.97383,2.47827 -2.15542,3.00188 -0.34049,0.98177 0.46754,1.20232 1.0604,0.28939 l 0.31316,-0.48214 1.84071,-0.87385 c 2.34519,-1.11312 4.36738,-2.88764 3.7605,-3.30005 -0.0577,-0.0392 -0.16611,-0.0569 -0.31316,-0.0568 z"
     id="path236" /><path
     style="fill:none;stroke:#0000ff;stroke-width:0.352778;stroke-dasharray:none;stroke-opacity:1"
     d="m 131.85592,146.51973 c -0.33275,-0.12717 -2.90225,0.34849 -4.08037,0.75551 l -1.06144,0.3669 -0.58446,0.74415 c -1.82242,2.32174 -1.14148,2.86327 2.39417,1.90375 1.95424,-0.53035 2.02116,-0.56767 2.59881,-1.45004 0.6415,-0.97991 1.02936,-2.20712 0.73329,-2.32027 z"
     id="path234" /><path
     style="fill:none;stroke:#0000ff;stroke-width:0.352778;stroke-dasharray:none;stroke-opacity:1"
     d="m 124.20109,144.90588 c -0.34504,-0.12484 -1.55286,3.22174 -1.98334,5.72885 -0.44484,2.59073 0.88461,3.41001 1.92959,1.18907 0.7099,-1.50877 0.76252,-2.08426 0.41703,-4.53512 -0.14233,-1.00959 -0.26539,-1.95661 -0.27337,-2.10427 -0.009,-0.17209 -0.0406,-0.2607 -0.0899,-0.27853 z"
     id="path233" /><path
     style="fill:none;stroke:#0000ff;stroke-width:0.352778;stroke-dasharray:none;stroke-opacity:1"
     d="m 160.34979,143.86046 c -0.22986,0.002 -0.4988,0.0956 -0.74311,0.28164 l -0.37104,0.28267 0.14314,0.22014 c 0.1904,0.2918 0.57002,0.45941 0.98082,0.43357 0.39999,-0.0251 0.68418,-0.56276 0.49971,-0.94517 -0.0886,-0.18374 -0.27967,-0.27442 -0.50952,-0.27285 z"
     id="path231" /><path
     style="fill:none;stroke:#0000ff;stroke-width:0.352778;stroke-dasharray:none;stroke-opacity:1"
     d="m 115.57216,143.86046 c -0.22986,0.002 -0.49829,0.0956 -0.74259,0.28164 l -0.37156,0.28267 0.14366,0.22014 c 0.1904,0.2918 0.5695,0.45941 0.98031,0.43357 0.39999,-0.0251 0.68417,-0.56276 0.49971,-0.94517 -0.0886,-0.18374 -0.27968,-0.27442 -0.50953,-0.27285 z"
     id="path229" /><path
     style="fill:none;stroke:#0000ff;stroke-width:0.352778;stroke-dasharray:none;stroke-opacity:1"
     d="m 132.65897,142.07194 c -1.42452,0.15043 -4.75422,2.47985 -5.38365,3.9486 -0.52993,1.23656 0.10316,1.20772 3.74034,-0.1695 l 1.50223,-0.56844 0.32815,-0.54105 c 0.32909,-0.54199 0.54214,-2.42315 0.29352,-2.59209 -0.11231,-0.0763 -0.27709,-0.099 -0.48059,-0.0775 z"
     id="path227" /><path
     style="fill:none;stroke:#0000ff;stroke-width:0.352778;stroke-dasharray:none;stroke-opacity:1"
     d="m 126.89291,140.96813 c -0.23705,-0.0305 -0.57062,0.38742 -1.07538,1.24386 -0.93659,1.58913 -0.93044,1.55544 -0.6997,3.77134 0.21757,2.08943 0.30437,2.20161 0.8816,1.13947 1.22841,-2.26037 1.55804,-3.37722 1.38958,-4.70928 -0.11844,-0.93652 -0.25904,-1.41492 -0.4961,-1.44539 z"
     id="path225" /><path
     style="fill:none;stroke:#0000ff;stroke-width:0.352778;stroke-dasharray:none;stroke-opacity:1"
     d="m 136.77603,139.70361 c -0.65187,-0.007 -1.30994,0.51454 -1.46813,1.56941 -0.80818,5.38932 1.21042,8.17362 6.11436,8.43411 2.36145,0.12544 2.90217,0.34917 4.30413,1.78336 1.28594,1.3155 1.32351,1.4052 0.95084,2.23759 -0.16006,0.35749 -0.25,0.71572 -0.2005,0.79582 0.20553,0.33254 0.60021,0.0274 0.72502,-0.56018 0.19683,-0.92657 0.31053,-1.06035 0.97462,-1.15135 0.96351,-0.132 2.16022,-1.06453 2.17403,-1.69395 0.007,-0.32674 0.31847,-0.43667 1.2397,-0.43667 0.4131,0 0.75139,-0.0663 0.75139,-0.14728 0,-0.24064 -0.55182,-0.46353 -1.14722,-0.46353 -0.42094,0 -0.63697,-0.10045 -0.88832,-0.41341 -2.2588,-2.81248 -4.05417,-3.70581 -7.73855,-3.8499 -3.7344,-0.14604 -3.82096,-0.23582 -4.35994,-4.50463 -0.13357,-1.05792 -0.77957,-1.5926 -1.43143,-1.59939 z"
     id="path224" /><path
     style="fill:none;stroke:#0000ff;stroke-width:0.352778;stroke-dasharray:none;stroke-opacity:1"
     d="m 133.99429,138.8525 c -0.10419,-0.0322 -0.24384,-0.0318 -0.42272,0.009 -1.43027,0.32428 -4.10838,3.25449 -3.11298,3.40599 0.69518,0.1058 0.95985,0.0439 1.67121,-0.39119 1.57793,-0.9651 2.59379,-2.79785 1.86449,-3.02359 z"
     id="path223" /><path
     style="fill:none;stroke:#0000ff;stroke-width:0.352778;stroke-dasharray:none;stroke-opacity:1"
     d="m 128.98374,138.27011 -0.73277,1.02216 c -0.79024,1.10262 -0.82412,1.2724 -0.5302,2.66237 0.34359,1.62483 0.65832,1.78463 1.47123,0.74672 1.07095,-1.36738 1.12649,-4.05853 0.0899,-4.34805 z"
     id="path222" /><path
     style="fill:none;stroke:#0000ff;stroke-width:0.352778;stroke-dasharray:none;stroke-opacity:1"
     d="m 131.1743,136.24697 c -0.16658,-0.0308 -0.36012,0.0674 -0.56534,0.33228 -0.31141,0.40206 -0.37615,1.08454 -0.20308,2.14148 0.20814,1.27115 0.79813,1.39145 1.13274,0.23099 0.393,-1.36292 0.13544,-2.61239 -0.36432,-2.70475 z"
     id="path221" /><path
     style="fill:none;stroke:#0000ff;stroke-width:0.352778;stroke-dasharray:none;stroke-opacity:1"
     d="m 133.94261,135.80772 c -0.094,0.001 -0.21766,0.0382 -0.37414,0.10646 -1.03924,0.45323 -1.70155,2.47466 -0.79478,2.42569 0.75366,-0.0407 1.03582,-0.35155 1.27951,-1.40973 0.18455,-0.80138 0.17151,-1.12556 -0.11059,-1.12242 z"
     id="path220" /><path
     style="fill:none;stroke:#0000ff;stroke-width:0.352778;stroke-dasharray:none;stroke-opacity:1"
     d="m 145.5357,135.40827 c -0.11946,0.07 -0.12538,0.35464 -0.10335,0.90382 0.0496,1.23554 -0.20533,1.72429 -1.27021,2.43602 -0.70998,0.47454 -0.85223,0.62806 -0.74569,0.80512 0.20163,0.33509 2.26378,1.03917 3.1874,1.08831 1.52145,0.0809 2.32187,0.66742 3.15123,2.30942 0.84332,1.66962 1.71241,2.60216 3.25407,3.49126 v 5.1e-4 c 1.17103,0.67536 2.54426,1.21212 4.03593,1.57769 0.58984,0.14453 1.10736,0.31551 1.15031,0.37982 0.0429,0.0643 0.1063,0.0553 0.14056,-0.0196 0.0343,-0.075 0.30912,-0.10924 0.61082,-0.076 1.85446,0.20452 4.58499,-1.44029 4.40232,-2.65204 -0.47695,-3.16369 -2.64625,-6.17534 -5.33508,-7.40781 l -1.66553,-0.76378 -1.08056,-0.0243 c -1.08224,-0.0243 -2.59854,0.12171 -4.30051,0.41393 -0.53715,0.0922 -1.08031,0.0782 -1.32757,-0.0346 -0.54802,-0.25014 -2.46697,-1.43125 -3.32072,-2.0438 -0.43113,-0.30932 -0.66396,-0.45399 -0.78342,-0.38395 z"
     id="path219" /><path
     style="fill:none;stroke:#0000ff;stroke-width:0.352778;stroke-dasharray:none;stroke-opacity:1"
     d="m 100.75807,135.40827 c -0.11945,0.07 -0.12538,0.35464 -0.10335,0.90382 0.0496,1.23554 -0.20533,1.72429 -1.270213,2.43602 -0.70997,0.47454 -0.85223,0.62806 -0.74569,0.80512 0.20163,0.33509 2.263783,1.03917 3.187413,1.08831 1.52144,0.0809 2.32186,0.66742 3.15122,2.30942 0.84332,1.66962 1.71242,2.60216 3.25407,3.49126 v 5.1e-4 c 1.17104,0.67536 2.54426,1.21212 4.03593,1.57769 0.58984,0.14453 1.10736,0.31551 1.15032,0.37982 0.0429,0.0643 0.10629,0.0553 0.14056,-0.0196 0.0343,-0.075 0.30911,-0.10924 0.61081,-0.076 1.85446,0.20452 4.585,-1.44029 4.40232,-2.65204 -0.47694,-3.16369 -2.64573,-6.17534 -5.33456,-7.40781 l -1.66605,-0.76378 -1.08055,-0.0243 c -1.08225,-0.0243 -2.59855,0.12171 -4.30052,0.41393 -0.53715,0.0922 -1.08031,0.0782 -1.32756,-0.0346 -0.54803,-0.25014 -2.46698,-1.43125 -3.32073,-2.0438 -0.43113,-0.30932 -0.66396,-0.45399 -0.78342,-0.38395 z"
     id="path218" /><path
     style="fill:none;stroke:#0000ff;stroke-width:0.352778;stroke-dasharray:none;stroke-opacity:1"
     d="m 117.4909,123.16715 c -0.99147,0.0924 -1.93993,0.37905 -2.73678,0.89039 -0.598,0.38374 -2.0741,0.8618 -2.76056,0.894 -0.0629,0.003 -0.11472,-0.20552 -0.11472,-0.46302 0,-1.73665 -0.63412,-1.48829 -3.72742,1.45676 -3.46943,3.30316 -3.49947,3.49922 -0.62477,4.12326 3.13019,0.6795 4.27598,1.20678 4.09846,1.88567 -0.20853,0.79739 1.7978,1.15335 5.99911,1.06505 3.74425,-0.0787 4.83375,-0.50115 6.12469,-2.37556 1.17567,-1.70702 4.62349,-2.1228 4.62349,-0.55759 v 0.53692 l -0.49609,0.20154 c -0.27298,0.11102 -0.8744,0.28914 -1.33636,0.39532 -1.68044,0.38622 -3.34153,1.53762 -3.67471,2.54713 l -0.18448,0.55811 0.26923,0.49971 c 0.15994,0.29698 0.49328,0.59351 0.82217,0.73122 1.08916,0.45607 1.37973,0.0424 0.63149,-0.89917 l -0.46767,-0.58859 0.42013,-0.43874 c 0.58241,-0.60791 1.48992,-1.08745 2.97759,-1.57354 3.71685,-1.21446 2.95433,-4.00603 -1.10329,-4.03903 -0.91225,-0.007 -1.29185,-0.30083 -1.60404,-1.24076 -0.80142,-2.41284 -4.16107,-3.88622 -7.13547,-3.60908 z"
     id="path217" /><path
     style="fill:none;stroke:#0000ff;stroke-width:0.352778;stroke-dasharray:none;stroke-opacity:1"
     d="m 143.5751,120.30945 c -0.99156,-0.11066 -2.95119,0.92761 -4.92632,2.73265 -1.51019,1.38014 -2.31479,1.48442 -2.88147,0.37362 -1.28819,-2.52505 -4.85479,-1.66371 -5.01728,1.21181 -0.18861,3.33795 3.69296,4.02261 5.35006,0.94361 0.27666,-0.51406 0.85827,-0.70622 0.65372,-0.21601 -0.0613,0.14699 -0.2944,0.77703 -0.5178,1.40043 l -0.40618,1.13379 -0.50849,0.17104 c -2.79381,0.94066 -3.0931,4.60023 -0.48421,5.92316 2.11123,1.07058 4.60246,-0.42193 4.63796,-2.77865 0.0165,-1.09386 -0.92844,-2.52134 -1.9172,-2.89594 -0.67199,-0.25459 -0.3269,-2.0517 0.6935,-3.61115 0.95754,-1.46339 1.41332,-0.80114 0.78135,1.13481 -1.106,3.38816 2.18635,5.68846 4.5191,3.15743 l 0.38189,-0.41444 v -1.19838 c 0,-1.75542 -1.15444,-2.9006 -2.92385,-2.9006 -0.71514,0 -0.97048,-0.25775 -0.97048,-0.9803 0,-0.54621 0.92661,-1.09604 2.49028,-1.47743 1.32141,-0.3223 1.81632,-0.67623 1.67897,-1.20147 -0.0801,-0.30622 -0.30303,-0.4711 -0.63355,-0.50798 z"
     id="path216" /><path
     style="fill:none;stroke:#0000ff;stroke-width:0.352778;stroke-dasharray:none;stroke-opacity:1"
     d="m 154.57133,119.9596 c -1.02939,1.4e-4 -3.94655,0.87509 -4.50671,1.42213 -0.65003,0.63483 -1.97331,2.47827 -2.1549,3.00189 -0.34049,0.98176 0.46754,1.20232 1.0604,0.28938 l 0.31316,-0.48214 1.84071,-0.87385 c 2.34519,-1.11312 4.36738,-2.88764 3.7605,-3.30005 -0.0576,-0.0392 -0.16611,-0.0574 -0.31317,-0.0574 z"
     id="path214" /><path
     style="fill:none;stroke:#0000ff;stroke-width:0.352778;stroke-dasharray:none;stroke-opacity:1"
     d="m 109.7937,119.9596 c -1.02938,1.4e-4 -3.94655,0.87458 -4.5067,1.42162 -0.65004,0.63482 -1.97331,2.47878 -2.15491,3.0024 -0.34049,0.98176 0.46754,1.20232 1.0604,0.28938 l 0.31316,-0.48265 1.84071,-0.87334 c 2.34519,-1.11312 4.36739,-2.88764 3.7605,-3.30005 -0.0576,-0.0392 -0.16611,-0.0574 -0.31316,-0.0574 z"
     id="path212" /><path
     style="fill:none;stroke:#0000ff;stroke-width:0.352778;stroke-dasharray:none;stroke-opacity:1"
     d="m 157.00942,115.87251 c -0.33274,-0.12717 -2.90173,0.349 -4.07985,0.75602 l -1.06195,0.36639 -0.58395,0.74466 c -1.82242,2.32174 -1.14199,2.86276 2.39365,1.90324 1.95424,-0.53035 2.02168,-0.56768 2.59933,-1.45004 0.6415,-0.97992 1.02884,-2.20712 0.73277,-2.32027 z"
     id="path210" /><path
     style="fill:none;stroke:#0000ff;stroke-width:0.352778;stroke-dasharray:none;stroke-opacity:1"
     d="m 112.23231,115.87251 c -0.33275,-0.12717 -2.90225,0.349 -4.08037,0.75602 l -1.06195,0.36639 -0.58395,0.74466 c -1.82241,2.32174 -1.14148,2.86276 2.39417,1.90324 1.95424,-0.53035 2.02116,-0.56768 2.59881,-1.45004 0.6415,-0.97992 1.02936,-2.20712 0.73329,-2.32027 z"
     id="path209" /><path
     style="fill:none;stroke:#0000ff;stroke-width:0.352778;stroke-dasharray:none;stroke-opacity:1"
     d="m 149.35459,114.25917 c -0.34503,-0.12484 -1.55286,3.22174 -1.98334,5.72885 -0.44484,2.59073 0.88462,3.41001 1.9296,1.18907 0.70989,-1.50877 0.76303,-2.08425 0.41754,-4.53512 -0.14232,-1.00959 -0.26539,-1.9566 -0.27337,-2.10426 -0.009,-0.1721 -0.0411,-0.26071 -0.0904,-0.27854 z"
     id="path208" /><path
     style="fill:none;stroke:#0000ff;stroke-width:0.352778;stroke-dasharray:none;stroke-opacity:1"
     d="m 104.57696,114.25917 c -0.34503,-0.12484 -1.55285,3.22174 -1.98334,5.72885 -0.44484,2.59073 0.88462,3.40949 1.9296,1.18856 0.70989,-1.50878 0.76303,-2.08374 0.41754,-4.53461 -0.14232,-1.00959 -0.26539,-1.9566 -0.27336,-2.10426 -0.009,-0.1721 -0.0412,-0.26071 -0.0904,-0.27854 z"
     id="path207" /><path
     style="fill:none;stroke:#0000ff;stroke-width:0.352778;stroke-dasharray:none;stroke-opacity:1"
     d="m 140.72618,113.21376 c -0.22986,0.002 -0.4988,0.0956 -0.74311,0.28163 l -0.37155,0.28267 0.14366,0.22014 c 0.19039,0.2918 0.5695,0.45941 0.9803,0.43357 0.39999,-0.0251 0.68469,-0.56276 0.50023,-0.94516 -0.0886,-0.18375 -0.27968,-0.27443 -0.50953,-0.27285 z"
     id="path206" /><path
     style="fill:none;stroke:#0000ff;stroke-width:0.352778;stroke-dasharray:none;stroke-opacity:1"
     d="m 95.948547,113.21376 c -0.22986,0.002 -0.4988,0.0956 -0.74311,0.28163 l -0.37155,0.28267 0.14366,0.22014 c 0.1904,0.2918 0.5695,0.45941 0.9803,0.43357 0.39999,-0.0251 0.68469,-0.56276 0.50023,-0.94516 -0.0886,-0.18375 -0.27967,-0.27443 -0.50953,-0.27285 z"
     id="path205" /><path
     style="fill:none;stroke:#0000ff;stroke-width:0.352778;stroke-dasharray:none;stroke-opacity:1"
     d="m 157.81299,111.42472 c -1.42452,0.15043 -4.75422,2.48036 -5.38365,3.94911 -0.52993,1.23656 0.10265,1.20772 3.73982,-0.1695 l 1.50224,-0.56896 0.32866,-0.54053 c 0.32909,-0.54198 0.54162,-2.42315 0.293,-2.59209 -0.11231,-0.0763 -0.27657,-0.0995 -0.48007,-0.078 z"
     id="path204" /><path
     style="fill:none;stroke:#0000ff;stroke-width:0.352778;stroke-dasharray:none;stroke-opacity:1"
     d="m 113.03536,111.42472 c -1.42452,0.15043 -4.75422,2.48036 -5.38365,3.94911 -0.52992,1.23656 0.10265,1.20772 3.73982,-0.1695 l 1.50224,-0.56896 0.32866,-0.54053 c 0.32909,-0.54198 0.54162,-2.42315 0.293,-2.59209 -0.11231,-0.0763 -0.27657,-0.0995 -0.48007,-0.078 z"
     id="path202" /><path
     style="fill:none;stroke:#0000ff;stroke-width:0.352778;stroke-dasharray:none;stroke-opacity:1"
     d="m 152.04642,110.32091 c -0.23706,-0.0305 -0.57063,0.38741 -1.07539,1.24385 -0.93659,1.58913 -0.93044,1.55597 -0.6997,3.77186 0.21757,2.08943 0.30437,2.20161 0.8816,1.13947 1.22841,-2.26037 1.55804,-3.37722 1.38958,-4.70928 -0.11844,-0.93652 -0.25904,-1.41544 -0.49609,-1.4459 z"
     id="path200" /><path
     style="fill:none;stroke:#0000ff;stroke-width:0.352778;stroke-dasharray:none;stroke-opacity:1"
     d="m 107.26879,110.32091 c -0.23706,-0.0305 -0.57063,0.38741 -1.07539,1.24385 -0.93659,1.58913 -0.93043,1.55597 -0.6997,3.77186 0.21757,2.08943 0.30437,2.20161 0.8816,1.13947 1.22841,-2.26037 1.55804,-3.37722 1.38958,-4.70928 -0.11844,-0.93652 -0.25904,-1.41544 -0.49609,-1.4459 z"
     id="path199" /><path
     style="fill:none;stroke:#0000ff;stroke-width:0.352778;stroke-dasharray:none;stroke-opacity:1"
     d="m 117.15242,109.05639 c -0.65187,-0.007 -1.30994,0.51505 -1.46813,1.56993 -0.80817,5.38931 1.20991,8.17309 6.11384,8.43359 2.36145,0.12544 2.90217,0.34968 4.30413,1.78387 1.28594,1.3155 1.32404,1.40468 0.95137,2.23707 -0.16006,0.35749 -0.25053,0.71572 -0.20103,0.79582 0.20553,0.33255 0.60073,0.0274 0.72554,-0.56017 0.19683,-0.92657 0.31001,-1.06035 0.9741,-1.15135 0.96351,-0.132 2.16075,-1.06454 2.17455,-1.69396 0.007,-0.32674 0.31848,-0.43615 1.23971,-0.43615 0.4131,0 0.75086,-0.0663 0.75086,-0.14727 0,-0.24064 -0.55129,-0.46354 -1.1467,-0.46354 -0.42094,0 -0.63696,-0.10045 -0.88831,-0.41341 -2.25882,-2.81248 -4.05417,-3.70581 -7.73856,-3.8499 -3.7344,-0.14604 -3.82147,-0.23582 -4.36045,-4.50463 -0.13357,-1.05792 -0.77905,-1.59312 -1.43092,-1.5999 z"
     id="path198" /><path
     style="fill:none;stroke:#0000ff;stroke-width:0.352778;stroke-dasharray:none;stroke-opacity:1"
     d="m 159.14831,108.20579 c -0.10419,-0.0322 -0.24384,-0.0318 -0.42272,0.009 -1.43027,0.32428 -4.1089,3.25449 -3.1135,3.40599 0.69518,0.10581 0.96037,0.0439 1.67173,-0.39119 1.57793,-0.9651 2.59379,-2.79785 1.86449,-3.02359 z"
     id="path197" /><path
     style="fill:none;stroke:#0000ff;stroke-width:0.352778;stroke-dasharray:none;stroke-opacity:1"
     d="m 114.37068,108.20528 c -0.10419,-0.0322 -0.24384,-0.0313 -0.42271,0.009 -1.43029,0.32428 -4.1089,3.25449 -3.11351,3.40599 0.69518,0.10581 0.96037,0.0434 1.67173,-0.39171 1.57793,-0.9651 2.5938,-2.79785 1.86449,-3.02358 z"
     id="path196" /><path
     style="fill:none;stroke:#0000ff;stroke-width:0.352778;stroke-dasharray:none;stroke-opacity:1"
     d="m 154.13724,107.6234 -0.73277,1.02216 c -0.79024,1.10262 -0.82412,1.2724 -0.5302,2.66237 0.34359,1.62483 0.65833,1.78463 1.47123,0.74672 1.07095,-1.36737 1.12701,-4.05853 0.0904,-4.34805 z"
     id="path195" /><path
     style="fill:none;stroke:#0000ff;stroke-width:0.352778;stroke-dasharray:none;stroke-opacity:1"
     d="m 109.35962,107.6234 -0.73278,1.02216 c -0.79024,1.10262 -0.82412,1.2724 -0.5302,2.66237 0.34359,1.62483 0.65833,1.78463 1.47123,0.74672 1.07095,-1.36737 1.12701,-4.05853 0.0904,-4.34805 z"
     id="path194" /><path
     style="fill:none;stroke:#0000ff;stroke-width:0.352778;stroke-dasharray:none;stroke-opacity:1"
     d="m 156.32833,105.60027 c -0.16659,-0.0308 -0.36013,0.0668 -0.56535,0.33176 -0.31141,0.40205 -0.37615,1.08454 -0.20308,2.14147 0.20814,1.27116 0.79813,1.39197 1.13274,0.23151 0.393,-1.36292 0.13544,-2.61239 -0.36431,-2.70474 z"
     id="path193" /><path
     style="fill:none;stroke:#0000ff;stroke-width:0.352778;stroke-dasharray:none;stroke-opacity:1"
     d="m 111.5507,105.60027 c -0.16659,-0.0308 -0.36013,0.0668 -0.56534,0.33176 -0.31142,0.40205 -0.37616,1.08454 -0.20309,2.14147 0.20815,1.27116 0.79813,1.39145 1.13275,0.23099 0.39299,-1.36291 0.13544,-2.61187 -0.36432,-2.70422 z"
     id="path192" /><path
     style="fill:none;stroke:#0000ff;stroke-width:0.352778;stroke-dasharray:none;stroke-opacity:1"
     d="m 159.09663,105.1605 c -0.094,0.001 -0.21817,0.0387 -0.37465,0.10697 -1.03925,0.45323 -1.70156,2.47466 -0.79479,2.42569 0.75367,-0.0407 1.03634,-0.35207 1.28003,-1.41025 0.18455,-0.80138 0.17151,-1.12556 -0.11059,-1.12241 z"
     id="path191" /><path
     style="fill:none;stroke:#0000ff;stroke-width:0.352778;stroke-dasharray:none;stroke-opacity:1"
     d="m 114.319,105.1605 c -0.094,0.001 -0.21766,0.0387 -0.37413,0.10697 -1.03925,0.45323 -1.70156,2.47466 -0.79479,2.42569 0.75366,-0.0407 1.03583,-0.35207 1.27951,-1.41025 0.18455,-0.80138 0.17151,-1.12556 -0.11059,-1.12241 z"
     id="path190" /><path
     style="fill:none;stroke:#0000ff;stroke-width:0.352778;stroke-dasharray:none;stroke-opacity:1"
     d="m 125.91209,104.76156 c -0.11945,0.07 -0.12538,0.35464 -0.10335,0.90382 0.0496,1.23554 -0.20533,1.72378 -1.27021,2.43551 -0.70997,0.47453 -0.85223,0.62857 -0.74569,0.80563 0.20163,0.33509 2.26378,1.03917 3.18741,1.08831 1.52144,0.081 2.32186,0.66742 3.15122,2.30942 0.84332,1.66962 1.71242,2.60216 3.25407,3.49126 1.17095,0.67525 2.54391,1.21216 4.03541,1.57768 0.58984,0.14453 1.10788,0.31552 1.15084,0.37982 0.0429,0.0643 0.10578,0.0559 0.14004,-0.0191 0.0343,-0.075 0.30911,-0.10924 0.61081,-0.076 1.85446,0.20452 4.585,-1.44029 4.40232,-2.65204 -0.47694,-3.16369 -2.64573,-6.17534 -5.33456,-7.40781 l -1.66605,-0.76378 -1.08003,-0.0243 c -1.08225,-0.0243 -2.59907,0.12171 -4.30103,0.41393 -0.53716,0.0922 -1.0798,0.0777 -1.32705,-0.0351 -0.54803,-0.25014 -2.46698,-1.43074 -3.32073,-2.04329 -0.43113,-0.30932 -0.66396,-0.45399 -0.78342,-0.38395 z"
     id="path189" /><path
     style="fill:none;stroke:#0000ff;stroke-width:0.352778;stroke-dasharray:none;stroke-opacity:1"
     d="m 137.11451,92.4605 c -0.99147,0.0924 -1.93994,0.37957 -2.73678,0.8909 -0.598,0.38374 -2.0741,0.86129 -2.76056,0.89349 -0.0629,0.003 -0.1142,-0.20552 -0.1142,-0.46302 0,-1.73665 -0.63464,-1.48829 -3.72794,1.45675 -3.46943,3.30317 -3.49948,3.49923 -0.62477,4.12327 3.1302,0.6795 4.27599,1.20678 4.09846,1.88567 -0.20853,0.79739 1.7978,1.15387 5.99912,1.06557 3.74425,-0.0787 4.83374,-0.50168 6.12469,-2.37608 1.17567,-1.70702 4.62349,-2.1228 4.62349,-0.55759 v 0.53692 l -0.4961,0.20205 c -0.27298,0.11102 -0.87439,0.28863 -1.33635,0.39481 -1.68044,0.38622 -3.34154,1.53762 -3.67471,2.54713 l -0.18449,0.55811 0.26924,0.49971 c 0.15994,0.29698 0.49328,0.59351 0.82217,0.73122 1.08916,0.45607 1.37973,0.0424 0.63149,-0.89917 l -0.46767,-0.5886 0.42012,-0.43873 c 0.58241,-0.60791 1.48992,-1.08746 2.9776,-1.57355 3.71685,-1.21446 2.95432,-4.00603 -1.10329,-4.03903 -0.91225,-0.007 -1.29185,-0.30082 -1.60404,-1.24075 -0.80142,-2.41284 -4.16107,-3.88623 -7.13548,-3.60908 z"
     id="path188" /><path
     style="fill:none;stroke:#0000ff;stroke-width:0.352778;stroke-dasharray:none;stroke-opacity:1"
     d="m 163.19871,89.60331 c -0.99156,-0.11066 -2.95119,0.92709 -4.92632,2.73213 -1.5102,1.38015 -2.3148,1.48442 -2.88148,0.37362 -1.28818,-2.52504 -4.85478,-1.6637 -5.01726,1.21182 -0.18861,3.33794 3.69296,4.0226 5.35006,0.94361 0.27666,-0.51406 0.85827,-0.70622 0.65371,-0.21601 -0.0613,0.14699 -0.2944,0.77703 -0.5178,1.40043 l -0.40618,1.13378 -0.50849,0.17105 c -2.79381,0.94066 -3.09258,4.60023 -0.48369,5.92315 2.11122,1.07058 4.60246,-0.42192 4.63796,-2.77864 0.0165,-1.09387 -0.92896,-2.52135 -1.91772,-2.89595 -0.672,-0.25458 -0.3269,-2.0517 0.6935,-3.61114 0.95754,-1.46339 1.41383,-0.80115 0.78187,1.13481 -1.106,3.38816 2.18582,5.68846 4.51858,3.15743 l 0.38189,-0.41444 v -1.19838 c 0,-1.75542 -1.15393,-2.90008 -2.92333,-2.90008 -0.71514,0 -0.971,-0.25827 -0.971,-0.98082 0,-0.54621 0.9266,-1.09604 2.49028,-1.47743 1.32141,-0.3223 1.81632,-0.67623 1.67897,-1.20148 -0.0801,-0.30621 -0.30303,-0.47057 -0.63355,-0.50746 z"
     id="path187" /><path
     style="fill:none;stroke:#0000ff;stroke-width:0.352778;stroke-dasharray:none;stroke-opacity:1"
     d="m 118.42108,89.60331 c -0.99156,-0.11066 -2.95119,0.92709 -4.92632,2.73213 -1.51019,1.38015 -2.31428,1.48442 -2.88096,0.37362 -1.28819,-2.52504 -4.8553,-1.6637 -5.01778,1.21182 -0.18861,3.33794 3.69296,4.0226 5.35006,0.94361 0.27666,-0.51406 0.85827,-0.70622 0.65371,-0.21601 -0.0613,0.14699 -0.2944,0.77703 -0.5178,1.40043 l -0.40618,1.13378 -0.50849,0.17105 c -2.79381,0.94066 -3.09258,4.60023 -0.48369,5.92315 2.11122,1.07058 4.60246,-0.42192 4.63796,-2.77864 0.0165,-1.09387 -0.92896,-2.52135 -1.91772,-2.89595 -0.67199,-0.25458 -0.3269,-2.0517 0.6935,-3.61114 0.95754,-1.46339 1.41384,-0.80115 0.78187,1.13481 -1.106,3.38816 2.18634,5.68846 4.5191,3.15743 l 0.38137,-0.41444 v -1.19838 c 0,-1.75542 -1.15392,-2.90008 -2.92333,-2.90008 -0.71514,0 -0.97049,-0.25827 -0.97049,-0.98082 0,-0.54621 0.92661,-1.09604 2.49029,-1.47743 1.32141,-0.3223 1.8158,-0.67623 1.67845,-1.20148 -0.0801,-0.30621 -0.30303,-0.47057 -0.63355,-0.50746 z"
     id="path185" /><path
     style="fill:none;stroke:#0000ff;stroke-width:0.352778;stroke-dasharray:none;stroke-opacity:1"
     d="m 129.41731,89.25346 c -1.02939,1.5e-4 -3.94604,0.87458 -4.50619,1.42162 -0.65003,0.63483 -1.97383,2.47827 -2.15542,3.00188 -0.34049,0.98177 0.46754,1.20232 1.0604,0.28939 l 0.31316,-0.48214 1.84071,-0.87385 c 2.34519,-1.11312 4.36738,-2.88765 3.7605,-3.30006 -0.0577,-0.0392 -0.16611,-0.0569 -0.31316,-0.0568 z"
     id="path184" /><path
     style="fill:none;stroke:#0000ff;stroke-width:0.352778;stroke-dasharray:none;stroke-opacity:1"
     d="m 131.85592,85.16585 c -0.33275,-0.12716 -2.90225,0.34901 -4.08037,0.75603 l -1.06144,0.3669 -0.58446,0.74414 c -1.82242,2.32174 -1.14148,2.86328 2.39417,1.90376 1.95424,-0.53035 2.02116,-0.56819 2.59881,-1.45055 0.6415,-0.97992 1.02936,-2.20713 0.73329,-2.32028 z"
     id="path182" /><path
     style="fill:none;stroke:#0000ff;stroke-width:0.352778;stroke-dasharray:none;stroke-opacity:1"
     d="m 124.20109,83.55252 c -0.34504,-0.12484 -1.55286,3.22174 -1.98334,5.72885 -0.44484,2.59073 0.88461,3.41001 1.92959,1.18907 0.7099,-1.50877 0.76252,-2.08426 0.41703,-4.53512 -0.14233,-1.00959 -0.26539,-1.95661 -0.27337,-2.10427 -0.009,-0.17209 -0.0406,-0.2607 -0.0899,-0.27853 z"
     id="path181" /><path
     style="fill:none;stroke:#0000ff;stroke-width:0.352778;stroke-dasharray:none;stroke-opacity:1"
     d="m 160.34979,82.5071 c -0.22986,0.002 -0.4988,0.0956 -0.74311,0.28164 l -0.37104,0.28267 0.14314,0.22014 c 0.1904,0.29179 0.57002,0.45941 0.98082,0.43357 0.39999,-0.0251 0.68418,-0.56276 0.49971,-0.94517 -0.0886,-0.18374 -0.27967,-0.27442 -0.50952,-0.27285 z"
     id="path179" /><path
     style="fill:none;stroke:#0000ff;stroke-width:0.352778;stroke-dasharray:none;stroke-opacity:1"
     d="m 115.57216,82.5071 c -0.22986,0.002 -0.49829,0.0956 -0.74259,0.28164 l -0.37156,0.28267 0.14366,0.22014 c 0.1904,0.29179 0.5695,0.45941 0.98031,0.43357 0.39999,-0.0251 0.68417,-0.56276 0.49971,-0.94517 -0.0886,-0.18374 -0.27968,-0.27442 -0.50953,-0.27285 z"
     id="path177" /><path
     style="fill:none;stroke:#0000ff;stroke-width:0.352778;stroke-dasharray:none;stroke-opacity:1"
     d="m 132.65897,80.71806 c -1.42452,0.15044 -4.75422,2.48037 -5.38365,3.94912 -0.52993,1.23655 0.10316,1.20772 3.74034,-0.1695 l 1.50223,-0.56896 0.32815,-0.54053 c 0.32909,-0.54199 0.54214,-2.42315 0.29352,-2.59209 -0.11231,-0.0763 -0.27709,-0.0995 -0.48059,-0.078 z"
     id="path175" /><path
     style="fill:none;stroke:#0000ff;stroke-width:0.352778;stroke-dasharray:none;stroke-opacity:1"
     d="m 126.89291,79.61426 c -0.23705,-0.0305 -0.57062,0.38741 -1.07538,1.24385 -0.93659,1.58913 -0.93044,1.55596 -0.6997,3.77186 0.21757,2.08943 0.30437,2.20161 0.8816,1.13947 1.22841,-2.26037 1.55804,-3.37722 1.38958,-4.70928 -0.11844,-0.93653 -0.25904,-1.41544 -0.4961,-1.4459 z"
     id="path173" /><path
     style="fill:none;stroke:#0000ff;stroke-width:0.352778;stroke-dasharray:none;stroke-opacity:1"
     d="m 136.77603,78.35025 c -0.65187,-0.007 -1.30994,0.51454 -1.46813,1.56941 -0.80818,5.38932 1.21042,8.1731 6.11436,8.4336 2.36145,0.12544 2.90217,0.34968 4.30413,1.78387 1.28594,1.3155 1.32351,1.4052 0.95084,2.23759 -0.16006,0.35749 -0.25,0.7152 -0.2005,0.7953 0.20553,0.33255 0.60021,0.0279 0.72502,-0.55966 0.19683,-0.92657 0.31053,-1.06087 0.97462,-1.15187 0.96351,-0.132 2.16022,-1.06453 2.17403,-1.69395 0.007,-0.32674 0.31847,-0.43615 1.2397,-0.43615 0.4131,0 0.75139,-0.0663 0.75139,-0.14728 0,-0.24064 -0.55182,-0.46353 -1.14722,-0.46353 -0.42094,0 -0.63697,-0.10046 -0.88832,-0.41342 -2.2588,-2.81247 -4.05417,-3.7058 -7.73855,-3.84989 -3.7344,-0.14604 -3.82096,-0.23582 -4.35994,-4.50463 -0.13357,-1.05792 -0.77957,-1.5926 -1.43143,-1.59939 z"
     id="path172" /><path
     style="fill:none;stroke:#0000ff;stroke-width:0.352778;stroke-dasharray:none;stroke-opacity:1"
     d="m 133.99429,77.49914 c -0.10419,-0.0323 -0.24384,-0.0318 -0.42272,0.009 -1.43027,0.32429 -4.10838,3.2545 -3.11298,3.406 0.69518,0.1058 0.95985,0.0439 1.67121,-0.39119 1.57793,-0.9651 2.59379,-2.79785 1.86449,-3.02359 z"
     id="path171" /><path
     style="fill:none;stroke:#0000ff;stroke-width:0.352778;stroke-dasharray:none;stroke-opacity:1"
     d="m 128.98322,76.91675 -0.73225,1.02216 c -0.79024,1.10262 -0.82412,1.2724 -0.5302,2.66237 0.34359,1.62483 0.65832,1.78463 1.47123,0.74672 1.07095,-1.36738 1.12649,-4.05853 0.0899,-4.34806 z"
     id="path170" /><path
     style="fill:none;stroke:#0000ff;stroke-width:0.352778;stroke-dasharray:none;stroke-opacity:1"
     d="m 131.1743,74.89361 c -0.16658,-0.0308 -0.36012,0.0668 -0.56534,0.33177 -0.31141,0.40205 -0.37615,1.08453 -0.20308,2.14147 0.20814,1.27116 0.79813,1.39197 1.13274,0.23151 0.393,-1.36292 0.13544,-2.61239 -0.36432,-2.70475 z"
     id="path169" /><path
     style="fill:none;stroke:#0000ff;stroke-width:0.352778;stroke-dasharray:none;stroke-opacity:1"
     d="m 133.94261,74.45385 c -0.094,10e-4 -0.21766,0.0387 -0.37414,0.10697 -1.03924,0.45322 -1.70155,2.47465 -0.79478,2.42569 0.75366,-0.0407 1.03582,-0.35207 1.27951,-1.41025 0.18455,-0.80138 0.17151,-1.12556 -0.11059,-1.12241 z"
     id="path168" /><path
     style="fill:none;stroke:#0000ff;stroke-width:0.352778;stroke-dasharray:none;stroke-opacity:1"
     d="m 145.5357,74.0549 c -0.11946,0.07 -0.12538,0.35465 -0.10335,0.90383 0.0496,1.23554 -0.20533,1.72378 -1.27021,2.43551 -0.70998,0.47453 -0.85223,0.62857 -0.74569,0.80563 0.20163,0.33509 2.26378,1.03917 3.1874,1.08831 1.52145,0.0809 2.32187,0.66742 3.15123,2.30942 0.84332,1.66962 1.71241,2.60215 3.25407,3.49126 1.17103,0.67535 2.54426,1.21212 4.03593,1.57768 0.58984,0.14453 1.10736,0.31552 1.15031,0.37982 0.0429,0.0643 0.1063,0.0559 0.14056,-0.0191 0.0343,-0.075 0.30912,-0.10924 0.61082,-0.076 1.85446,0.20452 4.58499,-1.44029 4.40232,-2.65204 -0.47695,-3.16369 -2.64625,-6.17535 -5.33508,-7.40782 l -1.66553,-0.76377 -1.08056,-0.0243 c -1.08224,-0.0243 -2.59854,0.12171 -4.30051,0.41393 -0.53715,0.0922 -1.08031,0.0777 -1.32757,-0.0351 -0.54802,-0.25015 -2.46697,-1.43074 -3.32072,-2.04329 -0.43113,-0.30932 -0.66396,-0.45399 -0.78342,-0.38396 z"
     id="path167" /><path
     style="fill:none;stroke:#0000ff;stroke-width:0.352778;stroke-dasharray:none;stroke-opacity:1"
     d="m 100.75807,74.0549 c -0.11945,0.07 -0.12538,0.35465 -0.10335,0.90383 0.0496,1.23554 -0.20533,1.72378 -1.270213,2.43551 -0.70997,0.47453 -0.85223,0.62857 -0.74569,0.80563 0.20163,0.33509 2.263783,1.03917 3.187413,1.08831 1.52144,0.0809 2.32186,0.66742 3.15122,2.30942 0.84332,1.66962 1.71242,2.60215 3.25407,3.49126 1.17104,0.67535 2.54426,1.21212 4.03593,1.57768 0.58984,0.14453 1.10736,0.31552 1.15032,0.37982 0.0429,0.0643 0.10629,0.0559 0.14056,-0.0191 0.0343,-0.075 0.30911,-0.10924 0.61081,-0.076 1.85446,0.20452 4.585,-1.44029 4.40232,-2.65204 -0.47694,-3.16369 -2.64573,-6.17535 -5.33456,-7.40782 l -1.66605,-0.76377 -1.08055,-0.0243 c -1.08225,-0.0243 -2.59855,0.12171 -4.30052,0.41393 -0.53715,0.0922 -1.08031,0.0777 -1.32756,-0.0351 -0.54803,-0.25015 -2.46698,-1.43074 -3.32073,-2.04329 -0.43113,-0.30932 -0.66396,-0.45399 -0.78342,-0.38396 z"
     id="path166" /><path
     style="fill:none;stroke:#0000ff;stroke-width:0.352778;stroke-dasharray:none;stroke-opacity:1"
     d="m 117.4909,61.81379 c -0.99147,0.0924 -1.93993,0.37905 -2.73678,0.89039 -0.598,0.38374 -2.0741,0.8618 -2.76056,0.894 -0.0629,0.003 -0.11472,-0.20552 -0.11472,-0.46302 0,-1.73665 -0.63412,-1.48881 -3.72742,1.45624 -3.46943,3.30317 -3.49947,3.49974 -0.62477,4.12378 3.13019,0.6795 4.27598,1.20627 4.09846,1.88516 -0.20853,0.79738 1.7978,1.15386 5.99911,1.06556 3.74425,-0.0787 4.83375,-0.50115 6.12469,-2.37556 1.17567,-1.70702 4.62349,-2.12332 4.62349,-0.55811 v 0.53692 l -0.49609,0.20206 c -0.27298,0.11102 -0.8744,0.28862 -1.33636,0.3948 -1.68044,0.38622 -3.34153,1.53763 -3.67471,2.54713 l -0.18448,0.55863 0.26923,0.49971 c 0.15994,0.29698 0.49328,0.59351 0.82217,0.73122 1.08916,0.45607 1.37973,0.0418 0.63149,-0.89969 l -0.46767,-0.58859 0.42013,-0.43822 c 0.58241,-0.60791 1.48992,-1.08746 2.97759,-1.57355 3.71685,-1.21445 2.95433,-4.00654 -1.10329,-4.03954 -0.91225,-0.007 -1.29185,-0.30082 -1.60404,-1.24075 -0.80142,-2.41285 -4.16107,-3.88572 -7.13547,-3.60857 z"
     id="path165" /><path
     style="fill:none;stroke:#0000ff;stroke-width:0.352778;stroke-dasharray:none;stroke-opacity:1"
     d="m 143.5751,58.95608 c -0.99156,-0.11065 -2.95119,0.9271 -4.92632,2.73214 -1.51019,1.38015 -2.31479,1.48442 -2.88147,0.37362 -1.28819,-2.52505 -4.85479,-1.66319 -5.01728,1.21233 -0.18861,3.33794 3.69296,4.02261 5.35006,0.94361 0.27666,-0.51406 0.85827,-0.70673 0.65372,-0.21652 -0.0613,0.14698 -0.2944,0.77754 -0.5178,1.40094 l -0.40618,1.13327 -0.50849,0.17156 c -2.79381,0.94066 -3.0931,4.59971 -0.48421,5.92264 2.11123,1.07058 4.60246,-0.42193 4.63796,-2.77864 0.0165,-1.09387 -0.92844,-2.52135 -1.9172,-2.89595 -0.67199,-0.25459 -0.3269,-2.05118 0.6935,-3.61063 0.95754,-1.46339 1.41332,-0.80166 0.78135,1.1343 -1.106,3.38815 2.18635,5.68845 4.5191,3.15743 l 0.38189,-0.41393 v -1.19838 c 0,-1.75542 -1.15444,-2.9006 -2.92385,-2.9006 -0.71514,0 -0.97048,-0.25827 -0.97048,-0.98082 0,-0.54621 0.92661,-1.09552 2.49028,-1.47691 1.32141,-0.3223 1.81632,-0.67674 1.67897,-1.20199 -0.0801,-0.30622 -0.30303,-0.47058 -0.63355,-0.50747 z"
     id="path164" /><path
     style="fill:none;stroke:#0000ff;stroke-width:0.352778;stroke-dasharray:none;stroke-opacity:1"
     d="m 154.57133,58.60624 c -1.02939,1.4e-4 -3.94655,0.87458 -4.50671,1.42161 -0.65003,0.63483 -1.97331,2.47879 -2.1549,3.0024 -0.34049,0.98177 0.46754,1.20181 1.0604,0.28888 l 0.31316,-0.48214 1.84071,-0.87385 c 2.34519,-1.11312 4.36738,-2.88765 3.7605,-3.30006 -0.0576,-0.0392 -0.16611,-0.0569 -0.31317,-0.0568 z"
     id="path162" /><path
     style="fill:none;stroke:#0000ff;stroke-width:0.352778;stroke-dasharray:none;stroke-opacity:1"
     d="m 109.7937,58.60624 c -1.02938,1.4e-4 -3.94655,0.87458 -4.5067,1.42161 -0.65004,0.63483 -1.97331,2.47827 -2.15491,3.00189 -0.34049,0.98176 0.46754,1.20232 1.0604,0.28939 l 0.31316,-0.48214 1.84071,-0.87385 c 2.34519,-1.11312 4.36739,-2.88765 3.7605,-3.30006 -0.0576,-0.0392 -0.16611,-0.0569 -0.31316,-0.0568 z"
     id="path160" /><path
     style="fill:none;stroke:#0000ff;stroke-width:0.352778;stroke-dasharray:none;stroke-opacity:1"
     d="m 157.00942,54.51915 c -0.33274,-0.12717 -2.90173,0.34849 -4.07985,0.75551 l -1.06195,0.3669 -0.58395,0.74414 c -1.82242,2.32174 -1.14199,2.86328 2.39365,1.90376 1.95424,-0.53035 2.02168,-0.56768 2.59933,-1.45004 0.6415,-0.97992 1.02884,-2.20712 0.73277,-2.32027 z"
     id="path158" /><path
     style="fill:none;stroke:#0000ff;stroke-width:0.352778;stroke-dasharray:none;stroke-opacity:1"
     d="m 112.23231,54.51915 c -0.33275,-0.12717 -2.90225,0.34849 -4.08037,0.75551 l -1.06195,0.3669 -0.58395,0.74414 c -1.82241,2.32174 -1.14148,2.86328 2.39417,1.90376 1.95424,-0.53035 2.02116,-0.56768 2.59881,-1.45004 0.6415,-0.97992 1.02936,-2.20712 0.73329,-2.32027 z"
     id="path157" /><path
     style="fill:none;stroke:#0000ff;stroke-width:0.352778;stroke-dasharray:none;stroke-opacity:1"
     d="m 149.35459,52.90581 c -0.34503,-0.12484 -1.55286,3.22122 -1.98334,5.72833 -0.44484,2.59073 0.88462,3.41001 1.9296,1.18908 0.70989,-1.50878 0.76303,-2.08426 0.41754,-4.53513 -0.14232,-1.00958 -0.26539,-1.95609 -0.27337,-2.10375 -0.009,-0.17209 -0.0411,-0.2607 -0.0904,-0.27853 z"
     id="path156" /><path
     style="fill:none;stroke:#0000ff;stroke-width:0.352778;stroke-dasharray:none;stroke-opacity:1"
     d="m 104.57696,52.90529 c -0.34503,-0.12484 -1.55285,3.22174 -1.98334,5.72885 -0.44484,2.59073 0.88462,3.41001 1.9296,1.18908 0.70989,-1.50878 0.76303,-2.08426 0.41754,-4.53513 -0.14232,-1.00958 -0.26539,-1.95609 -0.27336,-2.10375 -0.009,-0.17209 -0.0412,-0.26121 -0.0904,-0.27905 z"
     id="path155" /><path
     style="fill:none;stroke:#0000ff;stroke-width:0.352778;stroke-dasharray:none;stroke-opacity:1"
     d="m 140.72618,51.85988 c -0.22986,0.002 -0.4988,0.0956 -0.74311,0.28163 l -0.37155,0.28267 0.14366,0.22015 c 0.19039,0.29179 0.5695,0.45992 0.9803,0.43408 0.39999,-0.0251 0.68469,-0.56276 0.50023,-0.94516 -0.0886,-0.18375 -0.27968,-0.27495 -0.50953,-0.27337 z"
     id="path154" /><path
     style="fill:none;stroke:#0000ff;stroke-width:0.352778;stroke-dasharray:none;stroke-opacity:1"
     d="m 95.948547,51.85988 c -0.22986,0.002 -0.4988,0.0956 -0.74311,0.28163 l -0.37155,0.28319 0.14366,0.21963 c 0.1904,0.29179 0.5695,0.45992 0.9803,0.43408 0.39999,-0.0251 0.68469,-0.56276 0.50023,-0.94516 -0.0886,-0.18375 -0.27967,-0.27495 -0.50953,-0.27337 z"
     id="path153" /><path
     style="fill:none;stroke:#0000ff;stroke-width:0.352778;stroke-dasharray:none;stroke-opacity:1"
     d="m 157.81299,50.07136 c -1.42452,0.15043 -4.75422,2.47985 -5.38365,3.94859 -0.52993,1.23656 0.10265,1.20824 3.73982,-0.16898 l 1.50224,-0.56896 0.32866,-0.54105 c 0.32909,-0.54198 0.54162,-2.42314 0.293,-2.59209 -0.11231,-0.0763 -0.27657,-0.099 -0.48007,-0.0775 z"
     id="path152" /><path
     style="fill:none;stroke:#0000ff;stroke-width:0.352778;stroke-dasharray:none;stroke-opacity:1"
     d="m 113.03536,50.07136 c -1.42452,0.15043 -4.75422,2.47985 -5.38365,3.94859 -0.52992,1.23656 0.10265,1.20824 3.73982,-0.16898 l 1.50224,-0.56896 0.32866,-0.54105 c 0.32909,-0.54198 0.54214,-2.42314 0.29352,-2.59209 -0.11231,-0.0763 -0.27709,-0.099 -0.48059,-0.0775 z"
     id="path150" /><path
     style="fill:none;stroke:#0000ff;stroke-width:0.352778;stroke-dasharray:none;stroke-opacity:1"
     d="m 152.04642,48.96755 c -0.23706,-0.0305 -0.57063,0.38741 -1.07539,1.24385 -0.93659,1.58913 -0.93044,1.55545 -0.6997,3.77135 0.21757,2.08943 0.30437,2.20161 0.8816,1.13946 1.22841,-2.26037 1.55804,-3.3767 1.38958,-4.70876 -0.11844,-0.93652 -0.25904,-1.41544 -0.49609,-1.4459 z"
     id="path148" /><path
     style="fill:none;stroke:#0000ff;stroke-width:0.352778;stroke-dasharray:none;stroke-opacity:1"
     d="m 107.26879,48.96755 c -0.23706,-0.0305 -0.57063,0.38741 -1.07539,1.24385 -0.93659,1.58913 -0.93043,1.55545 -0.6997,3.77135 0.21757,2.08943 0.30489,2.20161 0.88212,1.13946 1.22841,-2.26037 1.55752,-3.3767 1.38906,-4.70876 -0.11844,-0.93652 -0.25904,-1.41544 -0.49609,-1.4459 z"
     id="path147" /><path
     style="fill:none;stroke:#0000ff;stroke-width:0.352778;stroke-dasharray:none;stroke-opacity:1"
     d="m 117.15242,47.70303 c -0.65187,-0.007 -1.30994,0.51453 -1.46813,1.56941 -0.80817,5.38931 1.20991,8.17361 6.11384,8.43411 2.36145,0.12544 2.90217,0.34968 4.30413,1.78387 1.28594,1.3155 1.32404,1.40468 0.95137,2.23707 -0.16006,0.35749 -0.25053,0.71572 -0.20103,0.79582 0.20553,0.33255 0.60073,0.0274 0.72554,-0.56017 0.19683,-0.92657 0.31001,-1.06035 0.9741,-1.15135 0.96351,-0.132 2.16075,-1.06454 2.17455,-1.69396 0.007,-0.32674 0.31848,-0.43666 1.23971,-0.43666 0.4131,0 0.75086,-0.0663 0.75086,-0.14728 0,-0.24064 -0.55129,-0.46354 -1.1467,-0.46354 -0.42094,0 -0.63696,-0.10045 -0.88831,-0.41341 -2.25882,-2.81248 -4.05417,-3.7058 -7.73856,-3.84989 -3.7344,-0.14604 -3.82147,-0.23531 -4.36045,-4.50412 -0.13357,-1.05792 -0.77905,-1.59312 -1.43092,-1.5999 z"
     id="path146" /><path
     style="fill:none;stroke:#0000ff;stroke-width:0.352778;stroke-dasharray:none;stroke-opacity:1"
     d="m 159.14831,46.85191 c -0.10419,-0.0322 -0.24384,-0.0318 -0.42272,0.009 -1.43027,0.32429 -4.1089,3.25449 -3.1135,3.40599 0.69518,0.10581 0.96037,0.0439 1.67173,-0.39119 1.57793,-0.9651 2.59379,-2.79785 1.86449,-3.02359 z"
     id="path145" /><path
     style="fill:none;stroke:#0000ff;stroke-width:0.352778;stroke-dasharray:none;stroke-opacity:1"
     d="m 114.37068,46.85191 c -0.10419,-0.0322 -0.24384,-0.0318 -0.42271,0.009 -1.43029,0.32429 -4.10839,3.25449 -3.11299,3.40599 0.69518,0.10581 0.95985,0.0439 1.67121,-0.39119 1.57793,-0.9651 2.5938,-2.79785 1.86449,-3.02359 z"
     id="path144" /><path
     style="fill:none;stroke:#0000ff;stroke-width:0.352778;stroke-dasharray:none;stroke-opacity:1"
     d="m 154.13724,46.26952 -0.73277,1.02268 c -0.79024,1.10262 -0.82412,1.2724 -0.5302,2.66237 0.34359,1.62483 0.65833,1.78412 1.47123,0.7462 1.07095,-1.36737 1.12701,-4.05801 0.0904,-4.34753 z"
     id="path143" /><path
     style="fill:none;stroke:#0000ff;stroke-width:0.352778;stroke-dasharray:none;stroke-opacity:1"
     d="m 109.35962,46.26952 -0.73278,1.02268 c -0.79024,1.10262 -0.82412,1.2724 -0.5302,2.66237 0.34359,1.62483 0.65833,1.78412 1.47123,0.7462 1.07095,-1.36737 1.12701,-4.05801 0.0904,-4.34753 z"
     id="path142" /><path
     style="fill:none;stroke:#0000ff;stroke-width:0.352778;stroke-dasharray:none;stroke-opacity:1"
     d="m 156.32833,44.24691 c -0.16659,-0.0308 -0.36013,0.0668 -0.56535,0.33176 -0.31141,0.40205 -0.37615,1.08454 -0.20308,2.14147 0.20814,1.27116 0.79813,1.39145 1.13274,0.23099 0.393,-1.36292 0.13544,-2.61187 -0.36431,-2.70422 z"
     id="path141" /><path
     style="fill:none;stroke:#0000ff;stroke-width:0.352778;stroke-dasharray:none;stroke-opacity:1"
     d="m 111.5507,44.24691 c -0.16659,-0.0308 -0.36013,0.0668 -0.56534,0.33176 -0.31142,0.40205 -0.37616,1.08454 -0.20309,2.14147 0.20815,1.27116 0.79813,1.39145 1.13275,0.23099 0.39299,-1.36292 0.13544,-2.61187 -0.36432,-2.70422 z"
     id="path140" /><path
     style="fill:none;stroke:#0000ff;stroke-width:0.352778;stroke-dasharray:none;stroke-opacity:1"
     d="m 159.09663,43.80714 c -0.094,0.001 -0.21817,0.0382 -0.37465,0.10645 -1.03925,0.45323 -1.70156,2.47518 -0.79479,2.42621 0.75367,-0.0407 1.03634,-0.35207 1.28003,-1.41025 0.18455,-0.80138 0.17151,-1.12556 -0.11059,-1.12241 z"
     id="path139" /><path
     style="fill:none;stroke:#0000ff;stroke-width:0.352778;stroke-dasharray:none;stroke-opacity:1"
     d="m 114.319,43.80714 c -0.094,0.001 -0.21766,0.0382 -0.37413,0.10645 -1.03925,0.45323 -1.70156,2.47466 -0.79479,2.42569 0.75366,-0.0407 1.03583,-0.35155 1.27951,-1.40973 0.18455,-0.80138 0.17151,-1.12556 -0.11059,-1.12241 z"
     id="path138" /><path
     style="fill:none;stroke:#0000ff;stroke-width:0.352778;stroke-dasharray:none;stroke-opacity:1"
     d="m 125.91209,43.40768 c -0.11945,0.07 -0.12538,0.35516 -0.10335,0.90434 0.0496,1.23554 -0.20533,1.72378 -1.27021,2.43551 -0.70997,0.47453 -0.85223,0.62805 -0.74569,0.80512 0.20163,0.33509 2.26378,1.03916 3.18741,1.0883 1.52144,0.081 2.32186,0.66794 3.15122,2.30994 0.84332,1.66962 1.71242,2.60164 3.25407,3.49074 l -5.2e-4,5.2e-4 c 1.17103,0.67536 2.54426,1.21212 4.03593,1.57768 0.58984,0.14453 1.10788,0.31552 1.15084,0.37982 0.0429,0.0643 0.10578,0.0553 0.14004,-0.0196 0.0343,-0.075 0.30911,-0.10872 0.61081,-0.0754 1.85446,0.20452 4.585,-1.44081 4.40232,-2.65255 -0.47694,-3.16369 -2.64573,-6.17535 -5.33456,-7.40782 l -1.66605,-0.76378 -1.08003,-0.0243 c -1.08225,-0.0243 -2.59907,0.12171 -4.30103,0.41393 -0.53716,0.0922 -1.0798,0.0782 -1.32705,-0.0346 -0.54803,-0.25014 -2.46698,-1.43126 -3.32073,-2.0438 -0.43113,-0.30932 -0.66396,-0.454 -0.78342,-0.38396 z"
     id="path137" /><path
     style="fill:none;stroke:#0000ff;stroke-width:0.352778;stroke-dasharray:none;stroke-opacity:1"
     d="m 92.664507,56.02655 c 0.57659,0.14282 1.08746,0.30995 1.12965,0.3731 0.0429,0.0643 0.10629,0.0553 0.14056,-0.0196 0.0343,-0.075 0.30911,-0.10872 0.61081,-0.0754 1.85446,0.20452 4.58448,-1.44081 4.4018,-2.65255 -0.47694,-3.16369 -2.64573,-6.17535 -5.33456,-7.40782 l -0.94826,-0.4346 z"
     id="path136" /><path
     style="fill:none;stroke:#0000ff;stroke-width:0.352778;stroke-dasharray:none;stroke-opacity:1"
     d="m 92.664507,65.09059 c 0.17451,-0.55924 0.42524,-1.15926 0.80925,-1.74614 0.95754,-1.46339 1.41332,-0.80166 0.78135,1.1343 -1.106,3.38815 2.18635,5.68845 4.51911,3.15743 l 0.38188,-0.41393 v -1.19838 c 0,-1.75542 -1.15392,-2.9006 -2.92333,-2.9006 -0.71514,0 -0.971,-0.25827 -0.971,-0.98082 0,-0.54621 0.92661,-1.09552 2.49029,-1.47691 1.3214,-0.3223 1.81631,-0.67674 1.67896,-1.20199 -0.32032,-1.22487 -2.92637,-0.18205 -5.55986,2.22467 -0.47295,0.43222 -0.85778,0.69467 -1.20665,0.8785 z"
     id="path135" /><path
     style="fill:none;stroke:#0000ff;stroke-width:0.352778;stroke-dasharray:none;stroke-opacity:1"
     d="m 92.664507,72.74491 c 1.1382,-0.44492 2.01265,-1.51166 2.03347,-2.89388 0.0165,-1.09387 -0.92895,-2.52135 -1.91771,-2.89595 -0.0474,-0.0179 -0.0784,-0.0599 -0.11576,-0.0925 z"
     id="path133" /><path
     style="fill:none;stroke:#0000ff;stroke-width:0.352778;stroke-dasharray:none;stroke-opacity:1"
     d="m 92.664507,87.1833 c 1.00289,0.67668 2.31088,1.08129 3.98012,1.16996 2.36145,0.12544 2.90217,0.34968 4.304133,1.78387 1.28594,1.3155 1.32403,1.40468 0.95136,2.23707 -0.16006,0.35749 -0.25052,0.71572 -0.20102,0.79582 0.20553,0.33255 0.60073,0.0279 0.72554,-0.55966 0.19683,-0.92657 0.31001,-1.06087 0.9741,-1.15187 0.96351,-0.132 2.16023,-1.06453 2.17403,-1.69395 0.007,-0.32674 0.31848,-0.43615 1.23971,-0.43615 0.4131,0 0.75138,-0.0663 0.75138,-0.14728 0,-0.24064 -0.55181,-0.46353 -1.14722,-0.46353 -0.42094,0 -0.63645,-0.10046 -0.8878,-0.41342 -2.25881,-2.81247 -4.05468,-3.7058 -7.739063,-3.84989 -3.7344,-0.14604 -3.82096,-0.23582 -4.35994,-4.50463 -0.0857,-0.67896 -0.39147,-1.11799 -0.76533,-1.36478 z"
     id="path132" /><path
     style="fill:none;stroke:#0000ff;stroke-width:0.352778;stroke-dasharray:none;stroke-opacity:1"
     d="m 92.664507,102.30124 c 3.56094,-0.0914 4.66607,-0.52845 5.93039,-2.36419 1.17567,-1.70702 4.623493,-2.1228 4.623493,-0.55759 v 0.53692 l -0.4961,0.20205 c -0.27297,0.11102 -0.87439,0.28863 -1.33635,0.39481 -1.680443,0.38622 -3.341533,1.53762 -3.674713,2.54713 l -0.18397,0.55811 0.26872,0.49971 c 0.15994,0.29698 0.49328,0.59351 0.82217,0.73122 1.08916,0.45607 1.38024,0.0424 0.63201,-0.89917 l -0.46819,-0.5886 0.42064,-0.43873 c 0.58241,-0.60791 1.489413,-1.08746 2.977083,-1.57355 3.71685,-1.21446 2.95433,-4.00603 -1.10329,-4.03903 -0.91225,-0.007 -1.291853,-0.30082 -1.604043,-1.24075 -0.77235,-2.32535 -3.9181,-3.75384 -6.80785,-3.60805 z"
     id="path131" /><path
     style="fill:none;stroke:#0000ff;stroke-width:0.352778;stroke-dasharray:none;stroke-opacity:1"
     d="m 92.664507,117.37991 c 0.57659,0.14283 1.08746,0.30995 1.12965,0.3731 0.0429,0.0643 0.10629,0.0559 0.14056,-0.0191 0.0343,-0.075 0.30911,-0.10924 0.61081,-0.076 1.85446,0.20452 4.58448,-1.44029 4.4018,-2.65204 -0.47694,-3.16369 -2.64573,-6.17534 -5.33456,-7.40781 l -0.94826,-0.4346 z"
     id="path130" /><path
     style="fill:none;stroke:#0000ff;stroke-width:0.352778;stroke-dasharray:none;stroke-opacity:1"
     d="m 92.664507,126.44447 c 0.17451,-0.55925 0.42524,-1.15978 0.80925,-1.74666 0.95754,-1.46339 1.41332,-0.80114 0.78135,1.13481 -1.106,3.38816 2.18635,5.68846 4.51911,3.15743 l 0.38188,-0.41444 v -1.19838 c 0,-1.75542 -1.15392,-2.9006 -2.92333,-2.9006 -0.71514,0 -0.971,-0.25775 -0.971,-0.9803 0,-0.54621 0.92661,-1.09604 2.49029,-1.47743 1.3214,-0.3223 1.81631,-0.67623 1.67896,-1.20147 -0.32032,-1.22487 -2.92637,-0.18205 -5.55986,2.22467 -0.47295,0.43222 -0.85778,0.69466 -1.20665,0.8785 z"
     id="path129" /><path
     style="fill:none;stroke:#0000ff;stroke-width:0.352778;stroke-dasharray:none;stroke-opacity:1"
     d="m 92.664507,134.09827 c 1.1382,-0.44492 2.01265,-1.51115 2.03347,-2.89337 0.0165,-1.09386 -0.92895,-2.52134 -1.91771,-2.89594 -0.0474,-0.0179 -0.0784,-0.0599 -0.11576,-0.0925 z"
     id="path127" /><path
     style="fill:none;stroke:#0000ff;stroke-width:0.352778;stroke-dasharray:none;stroke-opacity:1"
     d="m 92.664507,148.53666 c 1.0029,0.67671 2.31085,1.0818 3.98012,1.17047 2.36145,0.12544 2.90217,0.34917 4.304133,1.78336 1.28594,1.3155 1.32403,1.4052 0.95136,2.23759 -0.16006,0.35749 -0.25052,0.71572 -0.20102,0.79582 0.20553,0.33254 0.60073,0.0274 0.72554,-0.56018 0.19683,-0.92657 0.31001,-1.06035 0.9741,-1.15135 0.96351,-0.132 2.16023,-1.06453 2.17403,-1.69395 0.007,-0.32674 0.31848,-0.43667 1.23971,-0.43667 0.4131,0 0.75138,-0.0663 0.75138,-0.14728 0,-0.24064 -0.55181,-0.46353 -1.14722,-0.46353 -0.42094,0 -0.63645,-0.10045 -0.8878,-0.41341 -2.25881,-2.81248 -4.05468,-3.70581 -7.739063,-3.8499 -3.7344,-0.14604 -3.82096,-0.23582 -4.35994,-4.50463 -0.0857,-0.67896 -0.39147,-1.11799 -0.76533,-1.36478 z"
     id="path126" /><path
     style="fill:none;stroke:#0000ff;stroke-width:0.352778;stroke-dasharray:none;stroke-opacity:1"
     d="m 92.664507,163.6546 c 3.56094,-0.0914 4.66607,-0.52794 5.93039,-2.36368 1.17567,-1.70701 4.623493,-2.12331 4.623493,-0.5581 v 0.53692 l -0.4961,0.20205 c -0.27297,0.11102 -0.87439,0.28863 -1.33635,0.39481 -1.680443,0.38622 -3.341533,1.53762 -3.674713,2.54713 l -0.18397,0.55862 0.26872,0.4992 c 0.15994,0.29698 0.49328,0.59351 0.82217,0.73122 1.08916,0.45607 1.38024,0.0424 0.63201,-0.89917 l -0.46819,-0.5886 0.42064,-0.43821 c 0.58241,-0.60791 1.489413,-1.08746 2.977083,-1.57355 3.71685,-1.21446 2.95433,-4.00655 -1.10329,-4.03955 -0.91225,-0.007 -1.291853,-0.30082 -1.604043,-1.24075 -0.77235,-2.32535 -3.9181,-3.75384 -6.80785,-3.60805 z"
     id="path125" /><path
     style="fill:none;stroke:#0000ff;stroke-width:0.352778;stroke-dasharray:none;stroke-opacity:1"
     d="m 167.8377,133.45335 c -0.0602,0.10486 -0.16087,0.2108 -0.19482,0.31367 l -0.18448,0.55811 0.26923,0.49971 c 0.0253,0.0469 0.0768,0.0881 0.11007,0.13436 z"
     id="path124" /><path
     style="fill:none;stroke:#0000ff;stroke-width:0.352778;stroke-dasharray:none;stroke-opacity:1"
     d="m 167.8377,124.69367 c -2.18264,-1.68428 -5.9229,-2.16515 -8.30647,-0.63562 -0.598,0.38374 -2.07358,0.86129 -2.76004,0.89349 -0.0629,0.003 -0.11472,-0.20552 -0.11472,-0.46302 0,-1.73665 -0.63464,-1.48829 -3.72794,1.45676 -3.46942,3.30316 -3.49896,3.49922 -0.62425,4.12326 3.1302,0.6795 4.27599,1.20678 4.09846,1.88567 -0.20853,0.79739 1.79728,1.15387 5.9986,1.06557 3.07903,-0.0647 4.35946,-0.37644 5.43636,-1.52239 z"
     id="path123" /><path
     style="fill:none;stroke:#0000ff;stroke-width:0.352778;stroke-dasharray:none;stroke-opacity:1"
     d="m 167.8377,115.16919 c -0.0408,-0.002 -0.075,-0.007 -0.11627,-0.008 -3.7344,-0.14604 -3.82148,-0.23582 -4.36046,-4.50463 -0.26714,-2.11584 -2.58268,-2.13972 -2.89905,-0.03 -0.80818,5.38931 1.20991,8.17309 6.11384,8.43359 0.5062,0.0269 0.89665,0.0647 1.26194,0.11162 z"
     id="path122" /><path
     style="fill:none;stroke:#0000ff;stroke-width:0.352778;stroke-dasharray:none;stroke-opacity:1"
     d="m 167.8377,63.3398 c -2.18264,-1.68429 -5.9229,-2.16515 -8.30647,-0.63562 -0.598,0.38374 -2.07358,0.8618 -2.76004,0.894 -0.0629,0.003 -0.11472,-0.20552 -0.11472,-0.46302 0,-1.73665 -0.63464,-1.48881 -3.72794,1.45624 -3.46942,3.30317 -3.49896,3.49974 -0.62425,4.12378 3.1302,0.6795 4.27599,1.20678 4.09846,1.88567 -0.20853,0.79739 1.79728,1.15335 5.9986,1.06505 3.07903,-0.0647 4.35946,-0.37593 5.43636,-1.52187 z"
     id="path120" /><path
     style="fill:none;stroke:#0000ff;stroke-width:0.352778;stroke-dasharray:none;stroke-opacity:1"
     d="m 167.8377,53.81583 c -0.0408,-0.002 -0.075,-0.007 -0.11627,-0.008 -3.7344,-0.14604 -3.82148,-0.23582 -4.36046,-4.50463 -0.26714,-2.11584 -2.58268,-2.14024 -2.89905,-0.0305 -0.80818,5.38931 1.20991,8.17361 6.11384,8.43411 0.5062,0.0269 0.89665,0.0642 1.26194,0.1111 z"
     id="path119" /><path
     d="m 235.77494,160.90284 v 6.17636 h -3.99976 v 0.3235 12.0003 0.32349 h 3.99976 v 6.17637 h 59.16848 v -6.17637 h 4.00027 v -0.32349 -12.0003 -0.3235 h -4.00027 v -6.17636 z"
     style="stroke:#ff0002;stroke-width:0.352776;fill:none"
     id="path34" /><path
     d="m 772.2154,253.8336 -0.79685,5.2e-4 c -1.39458,8.5e-4 -1.94198,0.23349 -2.28203,0.971 l -0.11989,0.25993 -0.51987,0.28629 c -1.85764,1.02293 -1.87786,1.15125 -0.25373,1.58388 1.35101,0.35989 1.63831,0.86299 1.5627,2.73317 -0.085,2.10204 0.0322,2.80571 0.68471,4.10931 1.47153,2.9399 3.51606,5.25807 5.52783,6.26835 l 0.4718,0.23668 1.12758,1.24798 v 6.56808 4.40025 h 22.75579 a 1.2596366,1.2596366 31.3481 0 1 1.1193,0.68183 l 0.74137,1.43616 a 1.2596366,1.2596366 31.3481 0 0 1.1193,0.68183 h 0.78769 v -2.79982 h 3.99975 v -4.40025 h -3.99975 v -2.79983 h -0.81101 a 1.2503305,1.2503305 148.46282 0 0 -1.11479,0.68414 l -0.72707,1.43155 a 1.2503305,1.2503305 148.46282 0 1 -1.11479,0.68414 h -20.65979 v -6.56808 c 0.81122,-0.72056 0.80282,-0.71741 1.64486,-0.65112 1.09528,0.0862 2.09447,-0.12115 3.4432,-0.7152 0.24998,-0.1101 0.61451,-0.26398 0.80977,-0.34158 0.19527,-0.0776 0.85544,-0.38325 1.46709,-0.67955 2.26354,-1.09648 2.36943,-1.11254 6.60012,-0.98237 2.67836,0.0824 2.86676,0.10907 4.7811,0.67593 0.76667,0.22703 1.41873,0.4079 1.44901,0.40204 0.0303,-0.006 -0.43663,-0.27927 -1.03767,-0.60771 -0.60103,-0.32845 -1.0878,-0.60201 -1.08158,-0.60823 0.006,-0.006 0.30799,0.10407 0.67076,0.24546 1.37273,0.53502 1.78358,0.59489 1.64796,0.23978 -0.0721,-0.18875 -0.0396,-0.2781 0.12609,-0.34675 0.13684,-0.0567 0.13725,-0.08 0.003,-0.19327 -0.74856,-0.62987 -3.56249,-1.50671 -8.56899,-2.67012 -2.61913,-0.60863 -3.33172,-0.86715 -4.9444,-1.79317 -0.29628,-0.17013 -1.61429,-1.01232 -3.10162,-1.97146 l -2.02003,3.54139 -3.47472,-1.98179 2.1208,-3.71761 c -0.6773,-0.40294 -1.18599,-0.65326 -1.75752,-0.86454 -0.9963,-0.36832 -1.74536,-0.88871 -2.02055,-1.40405 -1.07085,-2.00538 -2.06418,-2.8291 -3.84731,-3.19051 z"
     style="fill:none;stroke:#ff0000;stroke-width:0.352778;stroke-dasharray:none;stroke-opacity:1"
     id="path250"
     inkscape:path-effect="#path-effect250"
     inkscape:original-d="m 772.2154,253.8336 -0.79685,5.2e-4 c -1.39458,8.5e-4 -1.94198,0.23349 -2.28203,0.971 l -0.11989,0.25993 -0.51987,0.28629 c -1.85764,1.02293 -1.87786,1.15125 -0.25373,1.58388 1.35101,0.35989 1.63831,0.86299 1.5627,2.73317 -0.085,2.10204 0.0322,2.80571 0.68471,4.10931 1.47153,2.9399 3.51606,5.25807 5.52783,6.26835 l 0.4718,0.23668 1.12758,1.24798 v 6.56808 4.40025 h 23.52311 l 1.44533,2.79982 h 1.55501 v -2.79982 h 3.99975 v -4.40025 h -3.99975 v -2.79983 h -1.57833 l -1.42201,2.79983 h -21.42711 v -6.56808 c 0.81122,-0.72056 0.80282,-0.71741 1.64486,-0.65112 1.09528,0.0862 2.09447,-0.12115 3.4432,-0.7152 0.24998,-0.1101 0.61451,-0.26398 0.80977,-0.34158 0.19527,-0.0776 0.85544,-0.38325 1.46709,-0.67955 2.26354,-1.09648 2.36943,-1.11254 6.60012,-0.98237 2.67836,0.0824 2.86676,0.10907 4.7811,0.67593 0.76667,0.22703 1.41873,0.4079 1.44901,0.40204 0.0303,-0.006 -0.43663,-0.27927 -1.03767,-0.60771 -0.60103,-0.32845 -1.0878,-0.60201 -1.08158,-0.60823 0.006,-0.006 0.30799,0.10407 0.67076,0.24546 1.37273,0.53502 1.78358,0.59489 1.64796,0.23978 -0.0721,-0.18875 -0.0396,-0.2781 0.12609,-0.34675 0.13684,-0.0567 0.13725,-0.08 0.003,-0.19327 -0.74856,-0.62987 -3.56249,-1.50671 -8.56899,-2.67012 -2.61913,-0.60863 -3.33172,-0.86715 -4.9444,-1.79317 -0.29628,-0.17013 -1.61429,-1.01232 -3.10162,-1.97146 l -2.02003,3.54139 -3.47472,-1.98179 2.1208,-3.71761 c -0.6773,-0.40294 -1.18599,-0.65326 -1.75752,-0.86454 -0.9963,-0.36832 -1.74536,-0.88871 -2.02055,-1.40405 -1.07085,-2.00538 -2.06418,-2.8291 -3.84731,-3.19051 z"
     sodipodi:nodetypes="csscsssscccccccccccccccccsssssssssssscssccccsssc"
     transform="rotate(90,536.08034,-206.11861)" /><g
     id="g275"
     transform="translate(34.045747)"><path
       d="m 301.65798,4.9576436 2.82101,2.836 2.50838,-2.49494 2.99154,2.97708 2.82102,-2.836 5.96811,5.9360704 -2.82101,2.836 5.68389,5.65495 2.82101,-2.836 5.96811,5.93607 -2.82101,2.83601 5.68389,5.65391 2.82101,-2.836 5.92212,5.89008 v 8.49974 h -3.99975 v 8.18038 h 3.99975 v 8.55968 h -3.99975 v 8.17987 h 3.99975 v 8.5602 h -3.99975 v 8.179855 h 3.99975 v 8.55917 h -3.99975 v 8.179861 h 3.99975 v 8.5602 h -3.99975 v 8.17986 h 3.99975 v 8.5602 h -3.99975 v 8.17987 h 3.99975 v 8.5602 h -3.99975 v 4.3589 3.98891 h -21.89892 -15.39803 -25.87646 v -3.98891 h 0.005 v -4.18424 h 4.00027 v -7.81502 h -4.00027 v -8.19382 h 4.00027 v -7.81502 h -4.00027 v -8.19485 h 4.00027 v -7.814 h -4.00027 v -8.195363 h 4.00027 v -7.815028 h -4.00027 v -8.19381 h 4.00027 v -7.815025 h -4.00027 v -8.19485 h 4.00027 v -7.81503 h -4.00027 v -8.19381 h 4.00027 v -7.81503 h -4.00027 v -8.13542 l 5.43688,-5.40794 2.82101,2.83601 5.19917,-5.17178 -2.82102,-2.836 5.48184,-5.45394 2.82102,2.83497 5.19916,-5.17229 -2.82101,-2.83497 z"
       style="fill:none;stroke:#ff0000;stroke-width:0.352778;stroke-dasharray:none;stroke-opacity:1"
       id="path37" /><path
       d="m 326.19788,40.590976 c -0.0301,-0.0935 -0.28435,-0.11024 -0.90021,-0.12299 -0.91379,-0.0189 -1.25393,-0.0748 -2.38745,-0.39067 -0.31156,-0.0868 -0.66668,-0.17594 -0.78961,-0.19844 -0.12294,-0.0225 -0.2439,-0.0727 -0.2682,-0.11213 -0.0243,-0.0394 -0.12561,-0.0718 -0.22531,-0.0718 -0.0997,0 -0.21609,-0.0292 -0.25839,-0.0646 -0.0423,-0.0354 -0.22246,-0.11032 -0.40049,-0.16692 -0.17804,-0.0565 -0.40575,-0.13668 -0.50591,-0.17828 -0.10014,-0.0416 -0.27319,-0.11208 -0.38447,-0.15658 -0.11127,-0.0445 -0.28382,-0.11379 -0.38396,-0.15399 -0.10015,-0.0402 -0.42584,-0.18615 -0.72347,-0.32402 -0.29762,-0.13787 -0.56131,-0.25063 -0.58601,-0.25063 -0.0246,0 -0.69165,-0.31853 -1.48208,-0.70796 l -1.43712,-0.70797 -1.03716,0.01 c -0.65082,0.006 -1.07173,0.0439 -1.12913,0.10128 -0.0503,0.0503 -0.20922,0.0915 -0.35346,0.0915 -0.14426,0 -0.28515,0.0366 -0.31265,0.0811 -0.0275,0.0445 -0.1549,0.0806 -0.28318,0.0806 -0.12827,0 -0.25569,0.0366 -0.28319,0.0811 -0.0275,0.0445 -0.13171,0.0806 -0.23151,0.0806 -0.0997,0 -0.21608,0.0292 -0.25838,0.0646 -0.0423,0.0354 -0.22248,0.11353 -0.4005,0.17363 -0.17803,0.0601 -0.57537,0.23103 -0.88315,0.38034 -0.30905,0.14993 -0.49601,0.23238 -0.60048,0.22738 v 2.61483 h -3.99975 v -2.61483 c -0.10448,0.005 -0.29142,-0.0774 -0.60048,-0.22738 -0.30779,-0.14931 -0.70511,-0.32028 -0.88315,-0.38034 -0.17803,-0.0601 -0.35821,-0.13821 -0.40049,-0.17363 -0.0423,-0.0354 -0.15866,-0.0646 -0.25839,-0.0646 -0.0998,0 -0.204,-0.0361 -0.23151,-0.0806 -0.0275,-0.0445 -0.15491,-0.0811 -0.28318,-0.0811 -0.12828,0 -0.25568,-0.0361 -0.28319,-0.0806 -0.0275,-0.0445 -0.16787,-0.0811 -0.31213,-0.0811 -0.14424,0 -0.30367,-0.0412 -0.35398,-0.0915 -0.0574,-0.0574 -0.47779,-0.0952 -1.12861,-0.10128 l -1.03767,-0.01 -1.43712,0.70797 c -0.79043,0.38944 -1.45744,0.70796 -1.48208,0.70796 -0.0247,0 -0.28839,0.11327 -0.58601,0.25115 -0.29763,0.13787 -0.6228,0.28334 -0.72295,0.3235 -0.10014,0.0402 -0.2732,0.10948 -0.38447,0.15399 -0.11128,0.0445 -0.28434,0.11501 -0.38448,0.15658 -0.10016,0.0416 -0.32787,0.12175 -0.50591,0.17828 -0.17803,0.0566 -0.3582,0.1315 -0.40049,0.16692 -0.0423,0.0354 -0.15864,0.0646 -0.25838,0.0646 -0.0997,0 -0.20098,0.0324 -0.22531,0.0718 -0.0243,0.0394 -0.14475,0.0897 -0.26769,0.11213 -0.12294,0.0225 -0.47857,0.11215 -0.79013,0.19896 -1.13352,0.31584 -1.47364,0.37129 -2.38745,0.39015 -0.98537,0.0204 -1.0444,0.0515 -0.74207,0.39016 0.373,0.41773 2.04957,1.34566 2.43137,1.34566 0.0893,0 0.18275,0.0322 0.20722,0.0718 0.0245,0.0396 0.16294,0.0925 0.308,0.11782 0.73665,0.12881 0.98559,0.19481 0.77411,0.20464 -0.90234,0.042 0.50257,0.96418 2.40295,1.57768 l 0.40463,0.13074 -0.40256,-0.0196 c -0.58822,-0.0289 -0.56412,0.14623 0.078,0.56689 0.28877,0.18916 0.55509,0.34417 0.5917,0.34417 0.0366,0 0.24637,0.0852 0.46612,0.18965 0.21975,0.10445 0.56886,0.23899 0.77566,0.29869 0.24538,0.0708 0.36196,0.14445 0.3359,0.21239 -0.0494,0.12874 0.1624,0.3514 0.33434,0.3514 0.07,0 0.12713,0.0361 0.12713,0.0806 0,0.0445 0.0552,0.0811 0.12247,0.0811 0.0674,0 0.18574,0.032 0.26303,0.0713 0.24751,0.12592 0.53647,0.23134 0.86869,0.31729 0.17803,0.0461 0.47412,0.12302 0.65732,0.17105 0.18319,0.048 0.40491,0.0873 0.49299,0.0873 0.0881,0 0.22289,0.0696 0.29973,0.15451 0.42617,0.47092 1.80543,0.81939 3.44888,0.87126 l 1.09554,0.0346 0.13643,0.2992 c 0.0398,0.0874 0.0842,0.16171 0.12764,0.24598 v -3.29385 h 3.99975 v 3.29385 c 0.0434,-0.0843 0.0878,-0.15858 0.12764,-0.24598 l 0.13643,-0.2992 1.09554,-0.0346 c 1.64346,-0.0519 3.02271,-0.40034 3.44889,-0.87126 0.0768,-0.085 0.21163,-0.15451 0.29973,-0.15451 0.0881,0 0.31032,-0.0393 0.49351,-0.0873 0.1832,-0.048 0.47877,-0.12495 0.65681,-0.17105 0.33221,-0.086 0.62116,-0.19137 0.86868,-0.31729 0.0773,-0.0393 0.19563,-0.0713 0.26303,-0.0713 0.0673,0 0.12247,-0.0366 0.12247,-0.0811 0,-0.0445 0.0571,-0.0806 0.12713,-0.0806 0.17194,0 0.38374,-0.22266 0.33434,-0.3514 -0.0261,-0.0679 0.0905,-0.14159 0.3359,-0.21239 0.2068,-0.0597 0.55592,-0.19424 0.77566,-0.29869 0.21974,-0.10443 0.42953,-0.18965 0.46613,-0.18965 0.0366,0 0.30292,-0.15501 0.59169,-0.34417 0.64219,-0.42065 0.66628,-0.59579 0.078,-0.56689 l -0.40256,0.0196 0.40463,-0.13074 c 1.90037,-0.6135 3.30529,-1.53568 2.40295,-1.57768 -0.21146,-0.01 0.0375,-0.0758 0.77412,-0.20464 0.14506,-0.0254 0.284,-0.0782 0.3085,-0.11782 0.0245,-0.0396 0.11741,-0.0718 0.20671,-0.0718 0.3818,0 2.05836,-0.92793 2.43138,-1.34566 0.11337,-0.12698 0.17621,-0.21106 0.15813,-0.26717 z"
       style="fill:none;stroke:#ff0000;stroke-width:0.352778;stroke-dasharray:none;stroke-opacity:1"
       id="path249" /><g
       id="g273"
       transform="matrix(0.14707574,0,0,0.14707574,197.31378,-4.5218159)"
       style="fill:#000000;fill-opacity:1;stroke:none;stroke-width:2.39861;stroke-dasharray:none;stroke-opacity:1"><path
         style="fill:#000000;fill-opacity:1;stroke:none;stroke-width:2.39861;stroke-dasharray:none;stroke-opacity:1"
         d="m 638.95647,433.4966 c -0.54215,-0.54214 -0.42076,-4.41989 0.14552,-4.64865 2.62296,-1.05963 4.33117,1.23976 3.34536,4.50313 -0.16828,0.55706 -2.96285,0.67355 -3.49088,0.14552 z"
         id="path271" /><path
         style="fill:#000000;fill-opacity:1;stroke:none;stroke-width:2.39861;stroke-dasharray:none;stroke-opacity:1"
         d="m 631.64865,433.5837 c -0.0862,-0.13943 -0.14865,-0.65065 -0.13883,-1.13605 0.01,-0.48539 -0.0597,-1.2504 -0.15447,-1.7 -0.13561,-0.64333 -0.0335,-0.97886 0.47934,-1.57507 l 0.65165,-0.75759 1.14787,0.0677 c 1.73381,0.10231 1.86047,0.31119 1.77332,2.92442 l -0.0758,2.27465 -1.76318,0.0777 c -0.96974,0.0427 -1.83367,-0.0364 -1.91985,-0.1758 z"
         id="path270" /><path
         style="fill:#000000;fill-opacity:1;stroke:none;stroke-width:2.39861;stroke-dasharray:none;stroke-opacity:1"
         d="m 695.76136,478.85938 c -0.0967,-0.6955 0.0975,-41.76929 0.19827,-41.93239 0.0688,-0.11138 3.61589,-0.2025 7.88235,-0.2025 8.82189,0 8.43174,-0.1018 8.23579,2.14891 -0.0681,0.78263 -0.12959,1.51226 -0.13656,1.6214 -0.007,0.10914 -2.5208,0.19844 -5.5863,0.19844 -3.33608,0 -5.7791,0.10996 -6.08542,0.27389 l -0.51177,0.2739 v 6.96975 c 0,8.43136 -0.55747,7.60806 5.10858,7.54462 5.10926,-0.0572 5.87274,0.47009 4.78498,3.30474 l -0.16059,0.41852 h -4.70589 -4.70588 l -0.1606,0.41851 c -0.29947,0.78039 -0.18185,14.88296 0.12571,15.07304 0.15747,0.0973 2.69294,0.15826 5.63438,0.13543 6.19748,-0.0481 8.31694,1.25038 5.93264,3.63468 -0.35798,0.35798 -15.80032,0.47398 -15.84969,0.11906 z"
         id="path266" /><path
         style="fill:#000000;fill-opacity:1;stroke:none;stroke-width:2.39861;stroke-dasharray:none;stroke-opacity:1"
         d="m 597.08983,478.5108 c -0.21055,-0.39341 -0.24944,-6.24434 -0.13851,-20.83594 0.0848,-11.1589 0.15286,-20.49727 0.15116,-20.75193 l -0.003,-0.46302 h 2.10105 c 2.67182,0 2.45723,-0.80451 2.41136,9.04038 l -0.0395,8.4744 c 0.03,6.90722 -0.0152,4.69264 0.0683,8.54667 l 0.0445,6.08542 0.0445,6.08542 5.55625,0.14587 c 3.05594,0.0802 5.58602,0.16953 5.6224,0.19844 0.13935,0.11073 0.0582,3.20492 -0.0944,3.6028 l -0.1606,0.41851 h -7.6353 -7.6353 z"
         id="path265"
         sodipodi:nodetypes="ssscssccccssscccs" /><path
         style="fill:#000000;fill-opacity:1;stroke:none;stroke-width:2.39861;stroke-dasharray:none;stroke-opacity:1"
         d="m 825.5737,479.06853 c -0.0939,-0.15189 -0.1012,-9.53307 -0.0163,-20.84707 0.0849,-11.314 0.1516,-20.71974 0.14818,-20.90164 -0.0104,-0.5523 3.85934,-0.45214 4.0733,0.10544 0.092,0.23989 0.0864,4.43684 -0.0126,9.32656 l -0.17992,8.8904 0.4391,0.36426 c 0.34023,0.28225 1.46635,0.35447 5.00179,0.3208 l 4.5627,-0.0435 0.34417,-0.4531 c 0.26899,-0.35411 0.33411,-2.40817 0.29812,-9.40308 -0.0521,-10.11502 -0.20212,-9.49404 2.26812,-9.3854 l 1.79962,0.0792 -0.0598,15.7427 c -0.10999,28.96722 0.11452,26.52568 -2.42817,26.40583 l -1.69292,-0.0798 -0.0521,-9.21635 c -0.0324,-5.72972 -0.15306,-9.33802 -0.31899,-9.53796 -0.30436,-0.36674 -9.18574,-0.55599 -9.7458,-0.20768 -0.24784,0.15414 -0.34418,2.48055 -0.39688,9.58277 l -0.0696,9.37922 -1.89573,0.0773 c -1.11634,0.0455 -1.9659,-0.0363 -2.06641,-0.19889 z"
         id="path264" /><path
         style="fill:#000000;fill-opacity:1;stroke:none;stroke-width:2.39861;stroke-dasharray:none;stroke-opacity:1"
         d="m 733.29365,479.12153 -5.22552,-0.0749 v -20.88718 -20.88718 l 0.51178,-0.2739 c 0.28147,-0.15064 1.22595,-0.27389 2.09883,-0.27389 h 1.58707 l 0.1672,0.5268 c 0.092,0.28974 0.10301,0.63066 0.0245,0.75761 -0.34552,0.55906 -0.18827,36.89655 0.16068,37.12954 0.18958,0.12658 0.8746,0.15637 1.52228,0.0662 1.59032,-0.22139 9.22413,0.42281 9.34734,0.7888 0.053,0.15744 0.0474,0.83551 -0.0125,1.50684 l -0.10889,1.22059 -2.02676,0.14474 c -1.11471,0.0796 -2.20535,0.18661 -2.42363,0.23777 -0.21828,0.0512 -2.74836,0.0593 -5.6224,0.0181 z"
         id="path263" /><path
         style="fill:#000000;fill-opacity:1;stroke:none;stroke-width:2.39861;stroke-dasharray:none;stroke-opacity:1"
         d="m 566.19643,478.90662 -0.55468,-0.38851 0.1,-4.29421 c 0.055,-2.36181 0.1091,-11.72441 0.12025,-20.80578 0.0243,-19.75899 -1.15436,-17.2228 8.00388,-17.2228 8.76283,0 9.65293,0.4398 8.25628,4.07941 l -0.1606,0.41851 -5.3295,0.004 c -6.63529,0.005 -5.87991,-0.94775 -6.09794,7.69158 l -0.1842,7.29876 0.38417,0.31883 c 0.26769,0.22217 1.63133,0.30822 4.49734,0.28383 4.94216,-0.0421 5.39477,0.32492 4.50332,3.65139 l -0.15954,0.59531 h -4.31915 c -5.30347,0 -4.7388,-1.12152 -4.75804,9.45019 -0.009,4.8338 -0.0695,8.83554 -0.1349,8.89276 -0.41021,0.35887 -3.66265,0.3797 -4.16665,0.0267 z"
         id="path262" /><path
         style="fill:#000000;fill-opacity:1;stroke:none;stroke-width:2.39861;stroke-dasharray:none;stroke-opacity:1"
         d="m 865.25459,479.35 -4.49792,-0.15989 -0.0625,-7.01145 c -0.0344,-3.85631 0.0251,-13.32177 0.13229,-21.03438 l 0.19483,-14.02291 h 1.98437 1.98438 l -0.10601,18.91837 -0.10601,18.91837 0.39093,0.32444 c 0.27377,0.22722 2.01021,0.34595 5.79455,0.39621 l 5.40362,0.0718 0.0805,1.55992 c 0.11531,2.2345 -0.83531,2.40772 -11.193,2.03955 z"
         id="path261" /><path
         style="fill:#000000;fill-opacity:1;stroke:none;stroke-width:2.39861;stroke-dasharray:none;stroke-opacity:1"
         d="m 796.44353,478.82637 c -1.86484,-0.88222 -3.03877,-2.17023 -3.88858,-4.26646 l -0.58994,-1.45521 -0.0815,-13.89063 -0.0815,-13.89062 0.44342,-1.85208 c 1.38534,-5.78628 5.84356,-8.1605 11.92966,-6.35312 3.56157,1.05767 5.5146,5.03047 5.33434,10.85103 l -0.0819,2.64583 -1.65707,0.0789 c -1.95993,0.0933 -1.83768,0.30218 -2.00576,-3.42764 -0.14558,-3.23049 -0.65514,-4.71777 -2.00574,-5.85423 l -0.85432,-0.71886 h -1.92495 c -2.39119,0 -3.42303,0.59163 -4.38445,2.51392 l -0.66146,1.32254 -0.0774,13.38759 -0.0774,13.38759 0.55998,1.49667 c 1.62944,4.35508 7.58823,4.0462 8.83979,-0.45822 0.20712,-0.74542 0.42107,-2.82229 0.47545,-4.61527 0.11186,-3.68831 0.07,-3.62028 2.22745,-3.61965 l 1.54589,4.5e-4 0.0753,3.02602 c 0.2101,8.44584 -2.6602,12.44338 -8.93881,12.44931 l -2.51355,0.002 z"
         id="path260" /><path
         style="fill:#000000;fill-opacity:1;stroke:none;stroke-width:2.39861;stroke-dasharray:none;stroke-opacity:1"
         d="m 763.67817,479.03109 c -4.88232,-1.98037 -7.79684,-12.1441 -3.48241,-12.1441 1.78461,0 1.92394,0.18833 2.05526,2.77812 0.0745,1.46943 0.30009,2.55268 0.73772,3.54254 l 0.63039,1.42586 1.45728,0.66716 1.45728,0.66717 1.60316,-0.32924 c 2.82687,-0.58055 3.69313,-1.97563 3.70919,-5.97349 l 0.0106,-2.64583 -0.77328,-1.57492 c -0.75123,-1.53004 -2.47661,-3.39922 -7.34577,-7.95802 -6.592,-6.17182 -6.87109,-16.35971 -0.55161,-20.13658 l 1.26232,-0.75443 2.77813,-0.002 c 5.72152,-0.003 8.74629,3.11449 8.83414,9.1056 l 0.0294,2.00447 -1.5875,0.17294 c -2.01473,0.21947 -2.14223,0.0969 -2.31806,-2.22797 -0.57888,-7.65406 -9.24534,-6.84825 -9.30594,0.86527 -0.0298,3.79883 1.09236,5.63928 6.28498,10.30759 4.2143,3.78876 6.04175,6.35433 6.69839,9.40387 1.17031,5.43511 -0.66258,10.6165 -4.41894,12.49185 l -1.70293,0.85019 -2.38125,-0.005 c -1.7583,-0.003 -2.72117,-0.1426 -3.68059,-0.53176 z"
         id="path259" /><path
         style="fill:#000000;fill-opacity:1;stroke:none;stroke-width:2.39861;stroke-dasharray:none;stroke-opacity:1"
         d="m 669.8598,479.42108 c -4.2871,-0.64367 -6.28867,-2.22439 -7.65661,-6.04674 -0.49626,-1.38667 -0.73848,-26.14354 -0.28442,-29.07003 0.8328,-5.36754 4.38342,-8.42829 9.30797,-8.02378 5.72232,0.47004 8.2195,3.64105 8.2673,10.49813 l 0.0231,3.30729 h -1.85208 -1.85208 l -0.16324,-2.91042 c -0.29524,-5.26396 -1.36473,-6.74687 -4.86589,-6.74687 -4.70122,0 -4.95597,0.98113 -4.84319,18.65312 l 0.0827,12.96458 0.66146,1.19063 c 0.48088,0.86559 1.00564,1.36133 1.92221,1.81592 l 1.26075,0.62531 1.50856,-0.18849 c 3.41701,-0.42692 4.35393,-2.6316 4.24416,-9.98697 l -0.0721,-4.83348 -1.98437,-0.13229 -1.98438,-0.13229 v -1.85209 -1.85208 l 3.88257,-0.0731 3.88256,-0.0731 0.18565,0.58491 c 0.27083,0.85332 -0.11384,13.8804 -0.45581,15.4363 -1.02506,4.66382 -4.84502,7.50163 -9.21476,6.84555 z"
         id="path258" /><path
         style="fill:#000000;fill-opacity:1;stroke:none;stroke-width:2.39861;stroke-dasharray:none;stroke-opacity:1"
         d="m 633.7091,479.06015 c -2.04585,-0.67029 -3.58469,-2.14572 -4.69365,-4.50024 -1.31368,-2.19651 -0.8929,-4.80009 -0.95953,-7.27605 -0.10828,-4.02383 -0.11078,-24.47383 -0.004,-30.62552 0.005,-0.27314 3.49137,-0.24355 3.92817,0.0333 0.28968,0.18362 0.33705,3.32097 0.26459,17.52459 l -0.0883,17.30093 0.66145,1.30725 c 1.63214,3.22561 6.08617,3.56185 7.98536,0.60282 l 0.87819,-1.36824 0.0768,-17.54559 0.0768,-17.54558 0.66801,-0.25398 c 0.87752,-0.33363 2.3902,-0.32367 3.03229,0.02 l 0.51187,0.27394 -0.12799,16.55762 c -0.15647,20.24264 -0.2583,20.9749 -3.32919,23.93822 -1.90002,1.83347 -5.89755,2.53408 -8.88121,1.55652 z"
         id="path257"
         sodipodi:nodetypes="csscsscsscccsscsscc" /><path
         d="m 901.65753,436.98864 c -3.19312,0 -3.32296,0.0639 -3.58035,1.72166 -0.33927,2.18509 -1.24625,7.10888 -2.63519,14.28627 -0.78849,4.07458 -1.51363,7.94292 -1.60923,8.59776 -0.16239,1.11219 -0.85108,4.78253 -2.38221,12.70164 -0.60992,3.15462 -0.75738,4.22447 -0.69218,4.96119 0.0337,0.38061 3.34298,0.47811 3.57332,0.10541 0.076,-0.12298 0.49328,-1.9792 0.92408,-4.12496 0.9511,-4.73715 0.21942,-4.18583 5.70607,-4.30415 l 4.62038,-0.0984 0.49541,0.49542 c 0.32192,0.32192 0.61176,1.23201 0.82219,2.58951 0.54302,3.50299 0.90708,5.2536 1.16651,5.60067 0.39118,0.52336 3.85929,0.44532 4.06523,-0.0914 0.17004,-0.44314 -0.22868,-3.11393 -0.86435,-5.79392 -0.35948,-1.51558 -0.63667,-3.07265 -2.10113,-11.77405 -0.35513,-2.11006 -0.76288,-4.43386 -0.9065,-5.16147 -0.50321,-2.54944 -1.86363,-10.35631 -2.52979,-14.51816 -0.36983,-2.31056 -0.79233,-4.42525 -0.93813,-4.69768 l -0.26352,-0.49541 z m -0.46379,6.58447 c 0.31273,-0.0979 0.67141,0.81834 0.95921,2.63871 0.17575,1.11166 0.49089,2.97484 0.69921,4.13901 0.47941,2.67917 0.75537,4.24139 1.44408,8.20073 0.30376,1.74625 0.72972,4.02706 0.94867,5.0666 0.21896,1.03953 0.36021,2.23006 0.31271,2.64573 l -0.0878,0.75543 -4.11441,0.0738 c -5.52093,0.0974 -5.24715,2.42242 -1.84464,-15.68468 0.57424,-3.05592 1.11353,-5.9982 1.19813,-6.53879 0.12732,-0.81368 0.29724,-1.23777 0.48488,-1.29652 z"
         id="path273" /><path
         style="fill:#000000;fill-opacity:1;stroke:none;stroke-width:2.39861;stroke-dasharray:none;stroke-opacity:1"
         d="m 934.31084,480.11961 c -3.58271,-1.05476 -5.09289,-2.36027 -6.34322,-5.48353 l -0.71481,-1.78557 0.0322,-13.56472 c 0.0426,-17.9536 0.40819,-19.56168 4.95609,-21.80079 l 1.27599,-0.62822 h 2.64583 c 6.44689,0 8.99492,2.82058 9.28354,10.27653 0.14436,3.72936 0.0717,3.87868 -1.88596,3.87868 -2.27098,0 -2.2382,0.0435 -2.2382,-2.97417 0,-4.38244 -0.7158,-5.82309 -3.39048,-6.82381 l -1.44085,-0.53909 -0.93623,0.30898 c -1.88769,0.623 -2.61954,1.25221 -3.24293,2.78816 l -0.59674,1.47027 -0.025,13.6666 -0.025,13.6666 0.60941,1.06288 c 1.99688,3.48277 7.12701,2.92666 8.36856,-0.90717 0.52124,-1.60956 0.77763,-10.98953 0.31097,-11.37682 -0.17237,-0.14306 -1.08274,-0.29621 -2.02305,-0.34033 l -1.70964,-0.0802 v -1.85208 -1.85208 l 3.81568,-0.0737 c 4.7342,-0.0914 4.28839,-0.90462 4.26244,7.77503 l -0.0221,7.37991 -0.53411,1.71979 c -1.39269,4.48438 -6.25093,7.31989 -10.43237,6.08887 z"
         id="path254" /></g></g></svg>
