<?xml version="1.0" encoding="utf-8"?>
<!-- Generator: Adobe Illustrator 23.0.3, SVG Export Plug-In . SVG Version: 6.00 Build 0)  -->
<svg version="1.1" id="Ebene_1" xmlns="http://www.w3.org/2000/svg" xmlns:xlink="http://www.w3.org/1999/xlink" x="0px" y="0px"
	 viewBox="0 0 675.9 1005.8" style="enable-background:new 0 0 675.9 1005.8;" xml:space="preserve">
<style type="text/css">
	.st0{fill:none;stroke:#FF0000;stroke-width:1.000000e-02;}
	.st1{fill:none;stroke:#0000FF;stroke-width:1.000000e-02;}
</style>
<path class="st0" d="M149.1,396.8V376h-20v11.3h-18.9V376h-20v11.3H71.3V376h-20v11.3H32.4V376h-20v20.8h11.3v19.7H12.4v20.8h11.3
	v8.5H12.4V489h11.3v8.5H12.4v20.8h20V507h18.9v11.3h20V507h18.9v11.3h20V507h18.9v11.3h20v-20.8h-11.3V489h11.3v-43.2h-11.3v-8.5
	h11.3v-20.8h-11.3v-19.7H149.1z M38.2,478.7H26.9V456h11.3V478.7z M39.8,436l-8-8l10-10l8,8L39.8,436z M92.3,424.5H69.6v-11.3h22.7
	V424.5z M112.1,426.1l8-8l10,10l-8,8L112.1,426.1z M134.9,478.7h-11.3V456h11.3V478.7z"/>
<path class="st0" d="M586.4,294.4v-12h-428v96.4h428v-12h-11.3v-24.3h11.3v-23.9h-11.3v-24.2L586.4,294.4L586.4,294.4z M271.8,366.8
	h-11.3v-24.4h11.3V366.8z M271.8,318.6h-11.3v-24.4h11.3V318.6z M351.2,336.3h-56.7V325h56.7V336.3z M385.2,366.7h-11.3v-24.3h11.3
	V366.7z M385.2,318.5h-11.3v-24.2h11.3V318.5z M411.5,359h-11.3v-56.7h11.3V359z M518.8,336.3h-56.7V325h56.7V336.3z"/>
<path class="st0" d="M609.8,556.8v-32h-26.1v11.3h-21.5v-11.3H499v11.3h-21.5v-11.3h-85.3v11.3h-21.5v-11.3h-85.3v11.3h-21.5v-11.3
	h-85.3v11.3h-22.3v8.1H145v-19.4h-8.1v11.3h-18.3v-11.3H80.1v11.3H61.8v-11.3H42.4v136.6h19.4v-11.3h18.3v11.3h38.5v-11.3h18.3v11.3
	h8V642h11.4v8.1H179v11.3h85.3v-11.3h21.5v11.3h85.3v-11.3h21.5v11.3h85.3v-11.3h21.5v11.3h63.2v-11.3h21.5v11.3h25.5v-32h-11.4
	v-21.6h11.4v-29.5h-11.4v-21.5L609.8,556.8L609.8,556.8z M65.2,603.8H53.9v-21.5h11.3V603.8z M112.9,648H85.7v-11.3h27.2V648z
	 M110,576.5H88.5v-11.3H110V576.5z M110.1,609.7V621H88.6v-11.3H110.1z M112.9,549.5H85.7v-11.3h27.2V549.5z M144.9,564.2h11.4v18.9
	h-11.4V564.2z M156.3,622h-11.4v-18.9h11.4V622z M219.2,648H192v-11.3h27.2V648z M216.3,576.5h-21.5v-11.3h21.5V576.5z M216.4,609.7
	V621h-21.5v-11.3H216.4z M219.2,549.5H192v-11.3h27.2V549.5z M349.1,598.6h-56.7v-11.3h56.7V598.6z M409.4,621.3h-11.3v-56.7h11.3
	V621.3z M448.7,648h-27.2v-11.3h27.2V648z M445.9,576.5h-21.5v-11.3h21.5V576.5z M446,609.7V621h-21.5v-11.3H446z M448.8,549.5
	h-27.2v-11.3h27.2V549.5z M516.7,598.6H460v-11.3h56.7V598.6z M555,648h-27.2v-11.3H555V648z M552.2,576.5h-21.5v-11.3h21.5V576.5z
	 M552.3,609.7V621h-21.5v-11.3H552.3z M555.1,549.5h-27.2v-11.3h27.2V549.5z"/>
<polygon class="st0" points="597.8,138.9 597.8,154.3 586.4,154.3 586.4,156.8 396.6,156.8 396.6,154.3 385.2,154.3 385.2,156.8 
	283.2,156.8 283.2,154.3 271.8,154.3 271.8,156.8 169.8,156.8 169.8,154.3 158.4,154.3 158.4,138.9 169.8,138.9 169.8,136.3 
	271.8,136.3 271.8,138.9 283.2,138.9 283.2,136.3 385.2,136.3 385.2,138.9 396.6,138.9 396.6,136.3 586.4,136.3 586.4,138.9 "/>
<path class="st0" d="M294.7,999.4h50.7V874.1h-50.7v11.3h-18.9v-11.3h-20v11.3h-18.9v-11.3h-50.8v125.2h50.8V988h-0.1v-11.4h19v22.7
	h20v-22.7h18.9V999.4z M334.2,976.7V988h-19.4v-11.3H334.2z M322.9,893v-7.6h11.3v7.6H322.9z M197.6,911.8v-18.3h11.3v18.3H197.6z
	 M322.9,930.8v-18.3h11.3v18.3H322.9z M197.6,949.6v-18.3h11.3v18.3H197.6z M322.9,968.6v-18.3h11.3v18.3H322.9z M217,988h-19.4v-19
	h11.3v7.6h8.1L217,988L217,988z"/>
<path class="st0" d="M120.2,963.8h-19v11.3H81.4v-11.3h-39c5.6-13.3,28.4-23.7,57-25.8v10.9h22.7V938c28.6,2.2,51.3,12.6,56.9,25.8
	h-38.9v11.3h-19.8L120.2,963.8L120.2,963.8z"/>
<path class="st0" d="M23.7,913.1v-19H12.4v-19.8h11.3v-39c13.3,5.6,23.7,28.4,25.8,57H38.7V915h10.9c-2.2,28.6-12.6,51.3-25.8,56.9
	V933H12.5v-19.8L23.7,913.1L23.7,913.1L23.7,913.1z"/>
<polygon class="st0" points="179.9,891.7 179.9,915.5 168.5,915.5 168.5,931.9 66,931.9 66,915.5 54.6,915.5 54.6,891.7 66,891.7 
	66,875.2 168.5,875.2 168.5,891.7 "/>
<path class="st0" d="M629.2,836.3h12.7c-1.3,6.6-3.8,12.7-7.2,18.2v-1.3h-11.3v11.3h-25.5v-11.3h-22.7v11.3h-25.5v-11.3h-11.3v1.8
	c-3.5-5.6-6.1-11.9-7.5-18.7h13v-22.7h-13c1.8-8.8,5.6-16.8,10.9-23.6l3.6,3.7l10-10l-3.6-3.6c6.8-5.2,14.7-8.9,23.4-10.7v12.8h22.7
	v-12.7c8.6,1.8,16.5,5.5,23.2,10.7l-3.5,3.5l10,10l3.5-3.5c5.3,6.8,9.1,14.8,10.8,23.5h-12.7V836.3z"/>
<path class="st0" d="M667.5,937.9h-12.9v-22.6h12.7c-1.7-8.7-5.5-16.7-10.8-23.5l-3.5,3.5l-10-10l3.5-3.5
	c-6.7-5.2-14.6-8.9-23.2-10.7v12.7h-22.7V871c-8.7,1.8-16.6,5.5-23.4,10.7l3.6,3.6l-10,10l-3.6-3.7c-5.3,6.8-9.1,14.8-10.9,23.6h13
	v22.7h-13c1.4,6.8,4,13.1,7.5,18.7v-1.8h11.4v11.3h25.5v-11.3h22.7v11.3h25.5v-11.3h11.4v1.3C663.7,950.6,666.2,944.5,667.5,937.9z
	 M594.9,933.5h-11.3v-22.7h11.3V933.5z M640.2,933.5h-11.3v-22.7h11.3V933.5z"/>
<path class="st0" d="M654.7,734.7h12.7c-1.3,6.6-3.8,12.7-7.2,18.2v-1.3h-11.3v11.3h-25.5v-11.3h-22.7v11.3h-25.5v-11.3h-11.3v1.8
	c-3.5-5.6-6.1-11.9-7.5-18.7h13V712h-13c1.8-8.8,5.6-16.8,10.9-23.6l3.6,3.7l10-10l-3.6-3.6c6.8-5.2,14.7-8.9,23.4-10.7v12.8h22.7
	v-12.7c8.6,1.8,16.5,5.5,23.2,10.7l-3.5,3.5l10,10l3.5-3.5c5.3,6.8,9.1,14.8,10.8,23.5h-12.7V734.7z"/>
<path class="st0" d="M385.1,872.4c-17.2,0-31.2,14-31.2,31.2s14,31.2,31.2,31.2s31.2-14,31.2-31.2S402.4,872.4,385.1,872.4z
	 M390.2,908.7H380v-10.2h10.2V908.7z"/>
<path class="st0" d="M402.1,934.8c-9.4,0-17,7.6-17,17s7.6,17,17,17s17-7.6,17-17S411.5,934.8,402.1,934.8z M407.2,956.9H397v-10.2
	h10.2V956.9z"/>
<rect x="542.5" y="944.1" class="st0" width="11.3" height="22.7"/>
<rect x="542.5" y="877.8" class="st0" width="11.3" height="22.7"/>
<g>
	<rect x="515.6" y="943.6" class="st0" width="22.7" height="23.8"/>
	<path class="st0" d="M526.9,955.4c0,2.3,0,4.3,0,4.3S526.9,957.8,526.9,955.4s0-4.3,0-4.3S526.9,953.1,526.9,955.4z"/>
</g>
<g>
	<rect x="515.6" y="877.3" class="st0" width="22.7" height="23.8"/>
	<path class="st0" d="M526.9,888.9c0,2.3,0,4.3,0,4.3S526.9,891.2,526.9,888.9s0-4.3,0-4.3S526.9,886.5,526.9,888.9z"/>
</g>
<g>
	<path class="st0" d="M511.7,939.3h34v-34h-34v-31.2h-88v96.4h88V939.3z M456.3,905.2v-11.3H479v11.3H456.3z M462.6,927.4v-10.2
		h10.2v10.2H462.6z M523.6,927.4v-10.2h10.2v10.2H523.6z M456.3,950.5v-11.3H479v11.3H456.3z"/>
	<path class="st0" d="M467.6,911.2c-2.3,0-4.3,0-4.3,0S465.2,911.2,467.6,911.2s4.3,0,4.3,0S469.9,911.2,467.6,911.2z"/>
	<path class="st0" d="M467.6,933.3c-2.3,0-4.3,0-4.3,0S465.2,933.3,467.6,933.3s4.3,0,4.3,0S469.9,933.3,467.6,933.3z"/>
</g>
<polygon class="st0" points="597.8,177.5 597.8,201.3 586.4,201.3 586.4,217.6 396.5,217.6 396.5,201.3 385.2,201.3 385.2,217.6 
	283.2,217.6 283.2,201.3 271.8,201.3 271.8,217.6 169.8,217.6 169.8,201.3 158.4,201.3 158.4,177.5 169.8,177.5 169.8,161.2 
	271.8,161.2 271.8,177.5 283.2,177.5 283.2,161.2 385.2,161.2 385.2,177.5 396.5,177.5 396.5,161.2 586.4,161.2 586.4,177.5 "/>
<polygon class="st0" points="597.8,236 597.8,259.8 586.4,259.8 586.4,276.1 396.5,276.1 396.5,259.8 385.2,259.8 385.2,276.1 
	283.2,276.1 283.2,259.8 271.8,259.8 271.8,276.1 169.8,276.1 169.8,259.8 158.4,259.8 158.4,236 169.8,236 169.8,219.7 
	271.8,219.7 271.8,236 283.2,236 283.2,219.7 385.2,219.7 385.2,236 396.5,236 396.5,219.7 586.4,219.7 586.4,236 "/>
<polygon class="st0" points="376.6,12 376.6,57.4 368.7,57.4 368.7,68.7 350.6,68.7 350.6,57.4 342.7,57.4 342.7,12 354.6,12 
	354.6,23.4 364.7,23.4 364.7,12 "/>
<polygon class="st0" points="338.6,12 338.6,57.4 330.7,57.4 330.7,68.7 312.6,68.7 312.6,57.4 304.7,57.4 304.7,12 316.6,12 
	316.6,23.4 326.7,23.4 326.7,12 "/>
<polygon class="st0" points="300.8,12 300.8,57.4 293,57.4 293,68.7 274.8,68.7 274.8,57.4 267,57.4 267,12 278.8,12 278.8,23.4 
	289,23.4 289,12 "/>
<polygon class="st0" points="261.2,12 261.2,57.4 253.4,57.4 253.4,68.7 235.2,68.7 235.2,57.4 227.4,57.4 227.4,12 239.2,12 
	239.2,23.4 249.4,23.4 249.4,12 "/>
<path class="st0" d="M424.1,34.7V23.5h-11.2V12.2h-11.3v11.3h-11.2v11.2h-11.3V46h11.3v11.2h11.2v11.3h11.3V57.3h11.2V46.1h11.3
	V34.7L424.1,34.7L424.1,34.7z M412.3,45.5h-10.2V35.3h10.2V45.5z"/>
<rect x="430.9" y="54.3" class="st0" width="22.7" height="11.3"/>
<path class="st0" d="M438.4,12v33.7h33.7V12H438.4z M460.3,33.9h-10.2V23.7h10.2V33.9z"/>
<polygon class="st0" points="80.9,12 80.9,57.4 73.1,57.4 73.1,68.7 54.9,68.7 54.9,57.4 47.1,57.4 47.1,12 58.9,12 58.9,23.4 
	69.1,23.4 69.1,12 "/>
<polygon class="st0" points="119,12 119,57.4 111.2,57.4 111.2,68.7 93,68.7 93,57.4 85.2,57.4 85.2,12 97,12 97,23.4 107.2,23.4 
	107.2,12 "/>
<polygon class="st0" points="158.4,12 158.4,57.4 150.6,57.4 150.6,68.7 132.4,68.7 132.4,57.4 124.6,57.4 124.6,12 136.4,12 
	136.4,23.4 146.6,23.4 146.6,12 "/>
<polygon class="st0" points="43.3,12 43.3,57.4 35.5,57.4 35.5,68.7 17.3,68.7 17.3,57.4 9.5,57.4 9.5,12 21.3,12 21.3,23.4 
	31.5,23.4 31.5,12 "/>
<path class="st0" d="M209.7,34.7V23.5h-11.2V12.2h-11.3v11.3H176v11.2h-11.3V46H176v11.2h11.2v11.3h11.3V57.3h11.2V46.1H221V34.7
	L209.7,34.7L209.7,34.7z M197.9,45.5h-10.2V35.3h10.2V45.5z"/>
<rect x="15.1" y="85.3" class="st0" width="22.7" height="11.3"/>
<path class="st0" d="M9.6,102v33.7h33.7V102H9.6z M31.5,123.9H21.3v-10.2h10.2V123.9z"/>
<g>
	<path class="st0" d="M586.5,91.9V75.6H456.1v11.3h-17V75.6h-42.5v16.3h-11.4V75.6h-102v16.3h-11.4V75.6h-42.5v11.3h-17V75.6h-42.5
		v16.3h-11.3v23.9h11.3V132h42.5v-11.3h17V132h42.5v-16.2h11.4V132h102v-16.2h11.4V132h42.5v-11.3h17V132h130.4v-16.2h11.3V91.9
		H586.5z M203.9,112.3h-11.3v-17h11.3V112.3z M249,112.3h-11.3v-17H249V112.3z M345.6,109.5h-22.7V98.2h22.7V109.5z M430.7,112.3
		h-11.3v-17h11.3V112.3z M475.8,112.3h-11.3v-17h11.3V112.3z M556.1,109.5H551v5.1h-11.3v-5.1h-5.1V98.2h5.1v-5.1H551v5.1h5.1V109.5
		z"/>
	<line class="st1" x1="504.2" y1="75.6" x2="504.2" y2="132"/>
</g>
<path class="st0" d="M47.1,80v56.4h102V80H47.1z M77.8,113.8H67.6v-11.3h10.2V113.8z M109.4,113.8H86.7v-11.3h22.7V113.8z"/>
<path class="st0" d="M479.4,40.3V29h11.3V12.1H502v40.8c0,2.4,1.9,4.3,4.3,4.3H502v11.4h-11.3V57.3h-4.3c2.4,0,4.3-2,4.3-4.3V40.3
	H479.4z"/>
<rect x="460.2" y="48.6" class="st0" width="23.8" height="22.7"/>
<path class="st0" d="M99,826.6c0,15.7-12.7,28.3-28.3,28.3c-15.7,0-28.3-12.7-28.3-28.3c0-3.3,0.6-6.4,1.6-9.4
	c1-2.8,2.3-5.3,4.1-7.6h8.5v-11.3H85v11.3h8.5c1.7,2.3,3.1,4.9,4.1,7.6C98.5,820.2,99,823.3,99,826.6z"/>
<path class="st0" d="M155.6,840.9c0,15.7-12.7,28.3-28.3,28.3c-15.7,0-28.3-12.7-28.3-28.3c0-3.3,0.6-6.4,1.6-9.4
	c1-2.8,2.3-5.3,4.1-7.6h8.5v-11.3h28.4v11.3h8.5c1.7,2.3,3.1,4.9,4.1,7.6C155.1,834.5,155.6,837.6,155.6,840.9z"/>
<path class="st0" d="M215.5,840.9c0,15.7-12.7,28.3-28.3,28.3c-15.7,0-28.3-12.7-28.3-28.3c0-3.3,0.6-6.4,1.6-9.4
	c1-2.8,2.3-5.3,4.1-7.6h8.5v-11.3h28.4v11.3h8.5c1.7,2.3,3.1,4.9,4.1,7.6C215,834.5,215.5,837.6,215.5,840.9z"/>
<path class="st0" d="M275,840.9c0,15.7-12.7,28.3-28.3,28.3c-15.7,0-28.3-12.7-28.3-28.3c0-3.3,0.6-6.4,1.6-9.4
	c1-2.8,2.3-5.3,4.1-7.6h8.5v-11.3H261v11.3h8.5c1.7,2.3,3.1,4.9,4.1,7.6C274.5,834.5,275,837.6,275,840.9z"/>
<path class="st0" d="M334.5,840.9c0,15.7-12.7,28.3-28.3,28.3c-15.7,0-28.3-12.7-28.3-28.3c0-3.3,0.6-6.4,1.6-9.4
	c1-2.8,2.3-5.3,4.1-7.6h8.5v-11.3h28.4v11.3h8.5c1.7,2.3,3.1,4.9,4.1,7.6C334,834.5,334.5,837.6,334.5,840.9z"/>
<path class="st0" d="M393.9,840.9c0,15.7-12.7,28.3-28.3,28.3c-15.7,0-28.3-12.7-28.3-28.3c0-3.3,0.6-6.4,1.6-9.4
	c1-2.8,2.3-5.3,4.1-7.6h8.5v-11.3h28.4v11.3h8.5c1.7,2.3,3.1,4.9,4.1,7.6C393.4,834.5,393.9,837.6,393.9,840.9z"/>
<path class="st0" d="M453.2,840.9c0,15.7-12.7,28.3-28.3,28.3c-15.7,0-28.3-12.7-28.3-28.3c0-3.3,0.6-6.4,1.6-9.4
	c1-2.8,2.3-5.3,4.1-7.6h8.5v-11.3h28.4v11.3h8.5c1.7,2.3,3.1,4.9,4.1,7.6C452.7,834.5,453.2,837.6,453.2,840.9z"/>
<path class="st0" d="M513,840.9c0,15.7-12.7,28.3-28.3,28.3c-15.7,0-28.3-12.7-28.3-28.3c0-3.3,0.6-6.4,1.6-9.4
	c1-2.8,2.3-5.3,4.1-7.6h8.5v-11.3H499v11.3h8.5c1.7,2.3,3.1,4.9,4.1,7.6C512.5,834.5,513,837.6,513,840.9z"/>
<path class="st0" d="M59.4,684.8c-9.4,0-17,7.6-17,17s7.6,17,17,17s17-7.6,17-17C76.4,692.4,68.8,684.8,59.4,684.8z M64.5,706.9
	H54.3v-10.2h10.2V706.9z"/>
<path class="st0" d="M260.3,766.4V755H249v11.4c-16.2,0.9-29.9,5.5-36.6,12c-2.3,1.9-4.2,3.5-8.2,3.5h-6.9c-3.4-0.4-5.1-2.2-7.5-4.1
	l0,0c-7-6.1-20.3-10.5-35.9-11.4V755h-11.3v11.4c-15.6,0.9-28.8,5.2-35.8,11.4c-1.4,1.1-2.6,2.3-4,3.1v-36.5h11.3v-11.3h-11.3v-37
	c1.2,0.7,2.3,1.6,3.4,2.5c6.8,6.4,20.4,11,36.5,11.9v11.4H154v-11.4c16.4-0.9,30.2-5.6,36.9-12.2c1.8-1.5,3.4-2.9,6-3.3h7.4
	c4,0,5.9,1.6,8.2,3.5c6.8,6.5,20.4,11.2,36.6,12v11.4h11.3v-11.4c23.2-1.3,41.1-10.3,41.1-21.2c0-11.8-21-21.4-46.8-21.4
	c-19.1,0-35.6,5.2-42.8,12.8c-2.1,1.7-4,3-7.6,3H199c-4.4,0-6.3-2-8.9-4.1l-0.1-0.1c-7.8-6.9-23.5-11.5-41.5-11.5
	s-33.7,4.7-41.5,11.5l-0.1,0.1c-2.7,2.1-4.5,4.1-8.9,4.1H80.4V695h11.3v38.1h-7.8c-2.3-6.6-8.6-11.3-16-11.3c-9.4,0-17,7.6-17,17
	s7.6,17,17,17c7.4,0,13.7-4.7,16-11.3h7.8v37.6H80.4v11.1H98c4.4,0,6.3,2,8.9,4.1l0.1,0.1c7.8,6.9,23.5,11.5,41.5,11.5
	s33.7-4.7,41.5-11.5l0.1-0.1c2.7-2.1,4.5-4.1,8.9-4.1h5.3c3.6,0,5.5,1.4,7.6,3c7.3,7.5,23.7,12.8,42.8,12.8
	c25.8,0,46.8-9.6,46.8-21.4C301.4,776.7,283.5,767.7,260.3,766.4z M254.6,679.1c19.5,0,35.4,4.5,35.4,10.1s-15.8,10.1-35.4,10.1
	c-19.5,0-35.4-4.5-35.4-10.1C219.2,683.7,235.1,679.1,254.6,679.1z M148.3,679.1c19.5,0,35.4,4.5,35.4,10.1s-15.8,10.1-35.4,10.1
	s-35.4-4.5-35.4-10.1C112.9,683.7,128.8,679.1,148.3,679.1z M73.2,744.3H61.9V733h11.3V744.3z M148.3,797.7
	c-19.5,0-35.4-4.5-35.4-10.1s15.9-10.1,35.4-10.1s35.4,4.5,35.4,10.1S167.9,797.7,148.3,797.7z M254.6,797.7
	c-19.5,0-35.4-4.5-35.4-10.1s15.9-10.1,35.4-10.1S290,782,290,787.6C290,793.2,274.2,797.7,254.6,797.7z"/>
<polygon class="st0" points="238.6,732.8 238.6,755.4 226.8,755.4 226.8,744.1 216.6,744.1 216.6,755.4 204.6,755.4 204.6,732.8 
	210.3,732.8 210.3,721.4 233.1,721.4 233.1,732.8 "/>
<path class="st0" d="M140.6,243.8h11.3v-8.1h-11.3v-18.3h11.3v-19.5h-11.3v-18.3h11.3v-19.5h-11.4v-7.6h-8.9v-11.3h-20.8v11.3H91.1
	v-11.3h-9.7v11.3H39.5v-11.3h-9.7v11.4h-8.9v7.4H9.6v19.5h11.3v37.3H9.6v19.5h11.3v18.8h119.7L140.6,243.8L140.6,243.8z M90.1,243.8
	v-68h40.3v68H90.1z"/>
<path class="st0" d="M110.9,372.5h20.8v-11.3h20.2v-8.1h-11.3v-18.3h11.3v-19.5h-11.3V297h11.3v-19.5h-11.4v-18.9H21v18.8H9.6v19.5
	h11.3v37.3H9.6v19.5h11.3v7.5h8.9v11.3h9.7v-11.3h42v11.3h9.7v-11.3h19.7L110.9,372.5L110.9,372.5z M88.9,337.9v-68h40.3v68H88.9z"
	/>
<path class="st0" d="M625.6,532.5v23.7h-11.3v22.7h11.3v28.4h-11.3V630h11.3v23.7h34V532.5H625.6z M648.3,648H637v-10.8h11.3V648z
	 M648.3,549H637v-10.8h11.3V549z"/>
<path class="st0" d="M635,263.6h-3.6v11.3h-5.7v-36.2h-11.3v36.2h-5.7v-11.3h-3.9c4.2-3.1,7-8.9,7-15.4c0-9.9-6.5-18-14.5-18h45.3
	c-8,0-14.5,8.1-14.5,18C628.1,254.7,630.9,260.4,635,263.6z"/>
<path class="st0" d="M635.1,366.2h-3.8v11.3h-22.7v-11.3h-3.8c4.2-3.2,7-8.9,7-15.4c0-9.9-6.5-18-14.5-18h5.7v-45.4h11.3v53.9h11.3
	v-53.9h11.3v45.4h5.8c-8,0-14.5,8.1-14.5,18C628.2,357.3,631,363,635.1,366.2z"/>
<path class="st0" d="M597.3,9.4c-15.5,0-28.1,12.6-28.1,28.1s12.6,28.1,28.1,28.1s28.1-12.6,28.1-28.1S612.8,9.4,597.3,9.4z
	 M591.4,43.1h-10.8V31.8h10.8V43.1z M614,43.1h-10.7V31.8h10.8v11.3H614z"/>
<path class="st0" d="M628.8,73.9c-15.5,0-28.1,12.6-28.1,28.1s12.6,28.1,28.1,28.1s28.1-12.6,28.1-28.1
	C656.9,86.5,644.3,73.9,628.8,73.9z M622.9,107.7h-10.8V96.4h10.8V107.7z M645.5,107.7h-10.8V96.4h10.8V107.7z"/>
<path class="st0" d="M534.4,9.4c-15.5,0-28.1,12.6-28.1,28.1s12.6,28.1,28.1,28.1s28.1-12.6,28.1-28.1
	C562.5,21.9,549.9,9.4,534.4,9.4z M528.4,43.1h-10.8V31.8h10.8V43.1z M551.1,43.1h-10.8V31.8h10.8V43.1z"/>
<g>
	<path class="st0" d="M628.8,148.4c-15.5,0-28.1,12.6-28.1,28.1s12.6,28.1,28.1,28.1s28.1-12.6,28.1-28.1
		C656.9,161,644.3,148.4,628.8,148.4z M622.6,182.1h-10.2v-11.3h10.2V182.1z M645.2,182.1H635v-11.3h10.2V182.1z"/>
	<circle class="st1" cx="628.8" cy="176.5" r="17"/>
</g>
<rect x="591.1" y="417.3" class="st0" width="57.8" height="22.7"/>
<rect x="591.1" y="441.8" class="st0" width="57.8" height="22.7"/>
<rect x="591.1" y="466.2" class="st0" width="57.8" height="22.7"/>
<path class="st0" d="M586.6,495.6h-0.2V480c0-14.9-12.1-26.9-26.9-26.9h-85c-14.8,0-26.9,12-26.9,26.9v15.6h-5.8V480
	c0-14.9-12-26.9-26.9-26.9h-85c-14.8,0-26.9,12-26.9,26.9v15.6h-5.7V480c0-14.9-12.1-26.9-27-26.9h-85c-14.8,0-26.9,12-26.9,26.9
	v38.2h22.7v-11.3h84.2v11.3H288v-11.3h84.2v11.3h22.7v-11.3h84.2v11.3h22.7v-11.3h62.1v11.3h22.7v-11.3h25.5
	C601.4,505.2,592.5,501.1,586.6,495.6z M169.7,495.6V480c0-8.6,7-15.6,15.6-15.6H201v31.2L169.7,495.6L169.7,495.6z M212.3,495.6
	v-31.2h31.2v31.2H212.3z M254.8,495.6v-31.2h15.6c8.6,0,15.6,7,15.6,15.6v15.6L254.8,495.6L254.8,495.6z M314.3,495.6V480
	c0-8.6,7-15.6,15.6-15.6h15.6v31.2L314.3,495.6L314.3,495.6z M356.8,495.6v-31.2H388v31.2H356.8z M399.3,495.6v-31.2h15.6
	c8.6,0,15.6,7,15.6,15.6v15.6L399.3,495.6L399.3,495.6z M458.9,495.6V480c0-8.6,7-15.6,15.6-15.6h15.6v31.2L458.9,495.6L458.9,495.6
	z M501.4,495.6v-31.2h31.2v31.2H501.4z M543.9,495.6v-31.2h15.6c8.6,0,15.6,7,15.6,15.6v15.6L543.9,495.6L543.9,495.6z"/>
<path class="st0" d="M611.9,394.1h-25.5v-11.3h-22.7v11.3h-62.1v-11.3h-22.7v11.3h-84.2v-11.3H372v11.3h-84.2v-11.3h-22.5v11.3
	h-84.2v-11.3h-22.7V421c0,14.9,12.1,26.9,26.9,26.9h85c14.9,0,27-12,27-26.9v-15.6h5.7V421c0,14.9,12.1,26.9,26.9,26.9h85
	c14.9,0,26.9-12,26.9-26.9v-15.6h5.8V421c0,14.9,12.1,26.9,26.9,26.9h85c14.8,0,26.9-12,26.9-26.9v-15.6h0.2
	C592.5,399.9,601.4,395.8,611.9,394.1z M201,405.4v31.2h-15.7c-8.6,0-15.6-7-15.6-15.6v-15.6L201,405.4L201,405.4z M243.5,405.4
	v31.2h-31.2v-31.2H243.5z M286,405.4V421c0,8.6-7,15.6-15.6,15.6h-15.6v-31.2L286,405.4L286,405.4z M345.5,405.4v31.2h-15.6
	c-8.6,0-15.6-7-15.6-15.6v-15.6L345.5,405.4L345.5,405.4z M388,405.4v31.2h-31.2v-31.2H388z M430.5,405.4V421
	c0,8.6-7,15.6-15.6,15.6h-15.6v-31.2L430.5,405.4L430.5,405.4z M490.1,405.4v31.2h-15.6c-8.6,0-15.6-7-15.6-15.6v-15.6L490.1,405.4
	L490.1,405.4z M532.6,405.4v31.2h-31.2v-31.2H532.6z M575.1,405.4V421c0,8.6-7,15.6-15.6,15.6h-15.6v-31.2L575.1,405.4L575.1,405.4z
	"/>
<path class="st0" d="M512.4,683.6c-5,0-6.7-2.6-10.1-5c-0.1,0-0.1-0.1-0.2-0.2c-8.1-6.3-23.2-10.6-40.4-10.6
	c-18.1,0-33.7,4.7-41.5,11.5c-0.1,0-0.1,0.1-0.1,0.1c-2.7,2.1-4.5,4.1-8.9,4.1H406c-3.9,0-5.9-1.6-8.1-3.5
	c-7.5-7.3-23.6-12.3-42.4-12.3c-25.9,0-46.8,9.6-46.8,21.4c0,11,18,20,41.2,21.2v11.4h11.3v-11.4c15.4-0.9,28.6-5.2,35.6-11.2
	c2.8-2.2,4.7-4.4,9.2-4.4h6.8c3.4,0.4,5.1,2.2,7.5,4.2l0,0c7,6.1,20.3,10.5,35.9,11.4v11.4h11.3v-11.4c14.8-0.8,27.5-4.8,34.7-10.4
	c0,0,0.1,0,0.1-0.1c3-2.2,4.7-4.5,8.6-5h19.2v-11.3L512.4,683.6L512.4,683.6z M355.4,699.3c-19.6,0-35.4-4.5-35.4-10.1
	s15.8-10.1,35.4-10.1c19.5,0,35.4,4.5,35.4,10.1C390.7,694.8,374.9,699.3,355.4,699.3z M461.6,699.3c-19.5,0-35.4-4.5-35.4-10.1
	s15.9-10.1,35.4-10.1c19.6,0,35.4,4.5,35.4,10.1C497.1,694.8,481.2,699.3,461.6,699.3z"/>
<path class="st0" d="M530,793.6v-11.3h-19.2c-3.9-0.5-5.6-2.8-8.6-5l-0.1-0.1c-7.2-5.6-19.9-9.6-34.7-10.4v-11.4h-11.3v11.4
	c-15.6,0.9-28.9,5.2-35.9,11.4l0,0c-2.4,1.9-4.1,3.7-7.5,4.2h-6.8c-4.5,0-6.4-2.1-9.2-4.4c-7-6-20.2-10.3-35.6-11.2v-11.4h-11.3
	v11.4c-23.2,1.3-41.2,10.3-41.2,21.2c0,11.8,20.9,21.4,46.8,21.4c18.7,0,34.9-5,42.4-12.3c2.3-1.9,4.2-3.5,8.1-3.5h5.2
	c4.4,0,6.3,2,8.9,4.1c0.1,0,0.1,0.1,0.1,0.1c7.8,6.9,23.5,11.5,41.5,11.5c17.2,0,32.3-4.3,40.4-10.6c0.1-0.1,0.1-0.1,0.2-0.2
	c3.4-2.5,5.1-5,10.1-5L530,793.6L530,793.6z M390.7,788c0,5.6-15.8,10.1-35.4,10.1s-35.4-4.5-35.4-10.1s15.8-10.1,35.4-10.1
	S390.7,782.4,390.7,788z M497.1,788c0,5.6-15.8,10.1-35.4,10.1c-19.5,0-35.4-4.5-35.4-10.1s15.9-10.1,35.4-10.1
	S497.1,782.4,497.1,788z"/>
<path class="st0" d="M59.4,758.3c-9.4,0-17,7.6-17,17s7.6,17,17,17s17-7.6,17-17C76.4,765.9,68.8,758.3,59.4,758.3z M64.5,780.4
	H54.3v-10.2h10.2V780.4z"/>
<polygon class="st0" points="406.6,732.8 406.6,755.4 394.7,755.4 394.7,744.1 384.5,744.1 384.5,755.4 372.6,755.4 372.6,732.8 
	378.3,732.8 378.3,721.4 401,721.4 401,732.8 "/>
<polygon class="st0" points="453.2,732.8 453.2,755.4 441.4,755.4 441.4,744.1 431.2,744.1 431.2,755.4 419.2,755.4 419.2,732.8 
	425,732.8 425,721.4 447.7,721.4 447.7,732.8 "/>
<polygon class="st0" points="194.9,732.8 194.9,755.4 183,755.4 183,744.1 172.8,744.1 172.8,755.4 160.9,755.4 160.9,732.8 
	166.6,732.8 166.6,721.4 189.3,721.4 189.3,732.8 "/>
<polygon class="st0" points="547,756.1 547,778.7 535.1,778.7 535.1,767.4 524.9,767.4 524.9,778.7 513,778.7 513,756.1 
	518.7,756.1 518.7,744.7 541.4,744.7 541.4,756.1 "/>
<polygon class="st0" points="547,715.8 547,738.4 535.1,738.4 535.1,727.1 524.9,727.1 524.9,738.4 513,738.4 513,715.8 
	518.7,715.8 518.7,704.4 541.4,704.4 541.4,715.8 "/>
<polygon class="st0" points="506.8,732.8 506.8,755.4 494.9,755.4 494.9,744.1 484.7,744.1 484.7,755.4 472.8,755.4 472.8,732.8 
	478.5,732.8 478.5,721.4 501.2,721.4 501.2,732.8 "/>
<polygon class="st0" points="342.6,732.8 342.6,755.4 330.7,755.4 330.7,744.1 320.5,744.1 320.5,755.4 308.6,755.4 308.6,732.8 
	314.2,732.8 314.2,721.4 337,721.4 337,732.8 "/>
<polygon class="st0" points="299.8,732.8 299.8,755.4 287.9,755.4 287.9,744.1 277.7,744.1 277.7,755.4 265.8,755.4 265.8,732.8 
	271.5,732.8 271.5,721.4 294.2,721.4 294.2,732.8 "/>
<polygon class="st0" points="139.8,755.4 117.2,755.4 117.2,743.5 128.5,743.5 128.5,733.3 117.2,733.3 117.2,721.4 139.8,721.4 
	139.8,727.1 151.2,727.1 151.2,749.8 139.8,749.8 "/>
</svg>
